<svg width="20" height="26" viewBox="0 0 20 26" fill="none" xmlns="http://www.w3.org/2000/svg">
<path d="M3.43832 12.0339L4.58147 12.5844C4.66378 12.4126 4.70653 12.2244 4.70653 12.0339H3.43832ZM1.76821 15.5187L0.625059 14.9682C0.524684 15.1777 0.483492 15.4107 0.505982 15.6421L1.76821 15.5187ZM4.17527 18.6865L4.71637 17.5368C4.6825 17.5207 4.64796 17.5063 4.61282 17.4934L4.17527 18.6865ZM10.1205 20.0424L10.1132 21.3136H10.1276L10.1205 20.0424ZM16.0655 18.6865L15.5421 17.5285L15.5244 17.5368L16.0655 18.6865ZM17.8346 17.3068L18.8236 18.1026C18.8733 18.0405 18.9171 17.9739 18.9543 17.9036L17.8346 17.3068ZM17.6367 13.7763L16.4762 14.2888C16.5082 14.3615 16.5469 14.4312 16.5917 14.4966L17.6367 13.7763ZM16.6822 10.1L17.9446 9.97968C17.9433 9.96595 17.9418 9.95222 17.9401 9.93849L16.6822 10.1ZM10.1205 24.2289L10.1029 25.4999C10.1145 25.5 10.1262 25.5 10.1379 25.4999L10.1205 24.2289ZM10.1188 2.02034C7.39431 2.02034 5.33462 3.20433 4.00474 5.12957C2.71553 6.99594 2.17011 9.46561 2.17011 12.0339H4.70653C4.70653 9.7768 5.19319 7.87527 6.0901 6.57681C6.94636 5.33721 8.22693 4.56272 10.1188 4.56272V2.02034ZM2.29517 11.4834L0.625059 14.9682L2.91135 16.0692L4.58147 12.5844L2.29517 11.4834ZM0.505982 15.6421C0.692375 17.5588 1.93806 19.2165 3.73772 19.8795L4.61282 17.4934C3.75301 17.1765 3.12507 16.3685 3.03043 15.3953L0.505982 15.6421ZM3.63418 19.8361C5.66562 20.7968 7.87471 21.3009 10.1132 21.3136L10.1276 18.7712C8.26007 18.7607 6.41532 18.3402 4.71637 17.5368L3.63418 19.8361ZM10.1276 21.3136C12.3662 21.3009 14.5751 20.7968 16.6066 19.8361L15.5244 17.5368C13.8255 18.3402 11.9807 18.7607 10.1132 18.7712L10.1276 21.3136ZM16.5888 19.8444C17.4587 19.4494 18.2235 18.8519 18.8236 18.1026L16.8455 16.511C16.4919 16.9527 16.045 17.3002 15.5421 17.5285L16.5888 19.8444ZM18.9543 17.9036C19.7695 16.3668 19.6655 14.4899 18.6815 13.056L16.5917 14.4966C17.0378 15.1466 17.0872 16.0078 16.7148 16.71L18.9543 17.9036ZM18.7972 13.2637C18.3407 12.2251 18.0525 11.1156 17.9446 9.97968L15.4195 10.2204C15.553 11.6261 15.9097 13.0004 16.4762 14.2888L18.7972 13.2637ZM17.9401 9.93849C17.67 7.82491 16.9549 5.85252 15.6519 4.38835C14.3184 2.88985 12.4514 2.02034 10.1188 2.02034V4.56272C11.7642 4.56272 12.9301 5.14914 13.7592 6.08074C14.6187 7.04665 15.1963 8.4785 15.4241 10.2615L17.9401 9.93849ZM11.387 3.29153V0.5H8.85055V3.29153H11.387ZM5.19904 23.8636C6.63225 24.9036 8.34175 25.4755 10.1029 25.4999L10.1379 22.9578C8.90382 22.9407 7.70037 22.54 6.68628 21.8043L5.19904 23.8636ZM10.1379 25.4999C11.899 25.4755 13.6085 24.9036 15.0418 23.8636L13.5544 21.8043C12.5404 22.54 11.3371 22.9407 10.1029 22.9578L10.1379 25.4999Z" fill="#F58C3C"/>
</svg>
