<svg width="25" height="31" viewBox="0 0 25 31" fill="none" xmlns="http://www.w3.org/2000/svg">
<path d="M21.412 18.5986C23.338 18.5986 24.8994 20.1599 24.8994 22.086V23.4888C24.8994 25.184 24.1593 26.7946 22.8731 27.8989C20.4468 29.9819 16.9743 31 12.495 31C8.01639 31 4.54632 29.9823 2.12395 27.8997C0.839624 26.7955 0.10083 25.186 0.10083 23.4923V22.086C0.10083 20.1599 1.66219 18.5986 3.58823 18.5986H21.412ZM21.412 20.9235H3.58823C2.94622 20.9235 2.42576 21.444 2.42576 22.086V23.4923C2.42576 24.5085 2.86904 25.4742 3.63963 26.1367C5.58961 27.8132 8.52834 28.6751 12.495 28.6751C16.4628 28.6751 19.4044 27.8127 21.3587 26.1348C22.1304 25.4723 22.5744 24.5059 22.5744 23.4888V22.086C22.5744 21.444 22.054 20.9235 21.412 20.9235ZM12.3378 0.010612L12.4955 0C13.084 0 13.5704 0.437326 13.6473 1.00473L13.658 1.16247L13.6567 2.32338L19.0823 2.32417C21.0083 2.32417 22.5697 3.88553 22.5697 5.81157V12.7935C22.5697 14.7195 21.0083 16.2809 19.0823 16.2809H5.90767C3.98164 16.2809 2.42027 14.7195 2.42027 12.7935V5.81157C2.42027 3.88553 3.98164 2.32417 5.90767 2.32417L11.3318 2.32338L11.333 1.16247C11.333 0.573955 11.7704 0.0875866 12.3378 0.010612ZM19.0823 4.6491H5.90767C5.26566 4.6491 4.74521 5.16955 4.74521 5.81157V12.7935C4.74521 13.4355 5.26566 13.9559 5.90767 13.9559H19.0823C19.7243 13.9559 20.2448 13.4355 20.2448 12.7935V5.81157C20.2448 5.16955 19.7243 4.6491 19.0823 4.6491ZM9.00648 6.97403C10.0759 6.97403 10.9428 7.84096 10.9428 8.91037C10.9428 9.97979 10.0759 10.8467 9.00648 10.8467C7.93707 10.8467 7.07014 9.97979 7.07014 8.91037C7.07014 7.84096 7.93707 6.97403 9.00648 6.97403ZM15.97 6.97403C17.0394 6.97403 17.9064 7.84096 17.9064 8.91037C17.9064 9.97979 17.0394 10.8467 15.97 10.8467C14.9006 10.8467 14.0337 9.97979 14.0337 8.91037C14.0337 7.84096 14.9006 6.97403 15.97 6.97403Z" fill="white"/>
</svg>
