<svg width="22" height="22" viewBox="0 0 22 22" fill="none" xmlns="http://www.w3.org/2000/svg">
<path d="M6.90698 7.93025H15.093" stroke="#F58C3C" stroke-width="3" stroke-linecap="round"/>
<path d="M6.90698 11.5117H12.5349" stroke="#F58C3C" stroke-width="3" stroke-linecap="round"/>
<mask id="path-3-inside-1_38_28" fill="white">
<path d="M2.10847e-07 9.46514C2.10847e-07 9.88897 0.3436 10.2326 0.767444 10.2326C1.19129 10.2326 1.53489 9.88897 1.53489 9.46514H2.10847e-07ZM1.86592 14.7108C1.70373 14.3192 1.25479 14.1332 0.863211 14.2954C0.47163 14.4576 0.285673 14.9065 0.44787 15.2981L1.86592 14.7108ZM12.7724 20.997L13.3271 20.0599L12.0062 19.278L11.4515 20.2152L12.7724 20.997ZM8.67292 20.0599L9.22764 20.997L10.5485 20.2152L9.99375 19.278L8.67292 20.0599ZM11.4515 20.2152C11.2543 20.5484 10.7457 20.5484 10.5485 20.2152L9.22764 20.997C10.0192 22.3343 11.9808 22.3343 12.7724 20.997L11.4515 20.2152ZM9.46514 1.53489H12.5349V2.10847e-07H9.46514V1.53489ZM20.4652 9.46514V10.4884H22.0001V9.46514H20.4652ZM6.7049 17.3868C5.42026 17.3646 4.74713 17.2829 4.2195 17.0644L3.63213 18.4824C4.45582 18.8236 5.39398 18.8993 6.67846 18.9214L6.7049 17.3868ZM0.44787 15.2981C1.04503 16.7398 2.19045 17.8852 3.63213 18.4824L4.2195 17.0644C3.15391 16.6229 2.3073 15.7764 1.86592 14.7108L0.44787 15.2981ZM20.4652 10.4884C20.4652 11.6908 20.4648 12.5543 20.4183 13.2355C20.3723 13.91 20.2836 14.3498 20.1341 14.7108L21.5522 15.2981C21.7921 14.719 21.8982 14.0926 21.9496 13.34C22.0005 12.5944 22.0001 11.6699 22.0001 10.4884H20.4652ZM15.3216 18.9214C16.606 18.8993 17.5443 18.8236 18.3679 18.4824L17.7805 17.0644C17.253 17.2829 16.5798 17.3646 15.2952 17.3868L15.3216 18.9214ZM20.1341 14.7108C19.6927 15.7764 18.8462 16.6229 17.7805 17.0644L18.3679 18.4824C19.8096 17.8852 20.955 16.7398 21.5522 15.2981L20.1341 14.7108ZM12.5349 1.53489C14.2245 1.53489 15.4379 1.5357 16.3843 1.62568C17.3194 1.71458 17.9143 1.88508 18.3886 2.17573L19.1906 0.867027C18.4345 0.403747 17.5769 0.197274 16.5296 0.0976906C15.4937 -0.000808206 14.1948 2.10847e-07 12.5349 2.10847e-07V1.53489ZM22.0001 9.46514C22.0001 7.80522 22.0009 6.50639 21.9023 5.47045C21.8028 4.42309 21.5963 3.56549 21.133 2.80949L19.8243 3.61147C20.115 4.08578 20.2855 4.68073 20.3744 5.61573C20.4643 6.56215 20.4652 7.77549 20.4652 9.46514H22.0001ZM18.3886 2.17573C18.9738 2.53432 19.4657 3.02631 19.8243 3.61147L21.133 2.80949C20.6479 2.0178 19.9823 1.35217 19.1906 0.867027L18.3886 2.17573ZM9.46514 2.10847e-07C7.80522 2.10847e-07 6.50639 -0.000808206 5.47045 0.0976906C4.42309 0.197274 3.56549 0.403747 2.80949 0.867027L3.61147 2.17573C4.08578 1.88508 4.68073 1.71458 5.61573 1.62568C6.56215 1.5357 7.77549 1.53489 9.46514 1.53489V2.10847e-07ZM1.53489 9.46514C1.53489 7.77549 1.5357 6.56215 1.62568 5.61573C1.71458 4.68073 1.88508 4.08578 2.17573 3.61147L0.867027 2.80949C0.403747 3.56549 0.197274 4.42309 0.0976906 5.47045C-0.000808206 6.50639 2.10847e-07 7.80522 2.10847e-07 9.46514H1.53489ZM2.80949 0.867027C2.0178 1.35217 1.35217 2.0178 0.867027 2.80949L2.17573 3.61147C2.53432 3.02631 3.02631 2.53432 3.61147 2.17573L2.80949 0.867027ZM9.99375 19.278C9.78603 18.927 9.60369 18.6173 9.42636 18.3739C9.23951 18.1177 9.02534 17.887 8.72825 17.7141L7.95657 19.041C8.00508 19.0691 8.07117 19.1206 8.18591 19.278C8.31011 19.4485 8.45042 19.6839 8.67292 20.0599L9.99375 19.278ZM6.67846 18.9214C7.12776 18.9292 7.41235 18.9349 7.62929 18.9588C7.83201 18.9813 7.91058 19.0142 7.95657 19.041L8.72825 17.7141C8.42868 17.5399 8.11695 17.4686 7.79822 17.4333C7.49372 17.3996 7.12571 17.3941 6.7049 17.3868L6.67846 18.9214ZM13.3271 20.0599C13.5496 19.6839 13.6899 19.4485 13.8141 19.278C13.9288 19.1206 13.9949 19.0691 14.0434 19.041L13.2718 17.7141C12.9747 17.887 12.7604 18.1177 12.5737 18.3739C12.3964 18.6173 12.214 18.927 12.0062 19.278L13.3271 20.0599ZM15.2952 17.3868C14.8743 17.3941 14.5063 17.3996 14.2018 17.4333C13.8831 17.4686 13.5714 17.5399 13.2718 17.7141L14.0434 19.041C14.0894 19.0142 14.168 18.9813 14.3707 18.9588C14.5877 18.9349 14.8722 18.9292 15.3216 18.9214L15.2952 17.3868Z"/>
</mask>
<path d="M2.10847e-07 9.46514C2.10847e-07 9.88897 0.3436 10.2326 0.767444 10.2326C1.19129 10.2326 1.53489 9.88897 1.53489 9.46514H2.10847e-07ZM1.86592 14.7108C1.70373 14.3192 1.25479 14.1332 0.863211 14.2954C0.47163 14.4576 0.285673 14.9065 0.44787 15.2981L1.86592 14.7108ZM12.7724 20.997L13.3271 20.0599L12.0062 19.278L11.4515 20.2152L12.7724 20.997ZM8.67292 20.0599L9.22764 20.997L10.5485 20.2152L9.99375 19.278L8.67292 20.0599ZM11.4515 20.2152C11.2543 20.5484 10.7457 20.5484 10.5485 20.2152L9.22764 20.997C10.0192 22.3343 11.9808 22.3343 12.7724 20.997L11.4515 20.2152ZM9.46514 1.53489H12.5349V2.10847e-07H9.46514V1.53489ZM20.4652 9.46514V10.4884H22.0001V9.46514H20.4652ZM6.7049 17.3868C5.42026 17.3646 4.74713 17.2829 4.2195 17.0644L3.63213 18.4824C4.45582 18.8236 5.39398 18.8993 6.67846 18.9214L6.7049 17.3868ZM0.44787 15.2981C1.04503 16.7398 2.19045 17.8852 3.63213 18.4824L4.2195 17.0644C3.15391 16.6229 2.3073 15.7764 1.86592 14.7108L0.44787 15.2981ZM20.4652 10.4884C20.4652 11.6908 20.4648 12.5543 20.4183 13.2355C20.3723 13.91 20.2836 14.3498 20.1341 14.7108L21.5522 15.2981C21.7921 14.719 21.8982 14.0926 21.9496 13.34C22.0005 12.5944 22.0001 11.6699 22.0001 10.4884H20.4652ZM15.3216 18.9214C16.606 18.8993 17.5443 18.8236 18.3679 18.4824L17.7805 17.0644C17.253 17.2829 16.5798 17.3646 15.2952 17.3868L15.3216 18.9214ZM20.1341 14.7108C19.6927 15.7764 18.8462 16.6229 17.7805 17.0644L18.3679 18.4824C19.8096 17.8852 20.955 16.7398 21.5522 15.2981L20.1341 14.7108ZM12.5349 1.53489C14.2245 1.53489 15.4379 1.5357 16.3843 1.62568C17.3194 1.71458 17.9143 1.88508 18.3886 2.17573L19.1906 0.867027C18.4345 0.403747 17.5769 0.197274 16.5296 0.0976906C15.4937 -0.000808206 14.1948 2.10847e-07 12.5349 2.10847e-07V1.53489ZM22.0001 9.46514C22.0001 7.80522 22.0009 6.50639 21.9023 5.47045C21.8028 4.42309 21.5963 3.56549 21.133 2.80949L19.8243 3.61147C20.115 4.08578 20.2855 4.68073 20.3744 5.61573C20.4643 6.56215 20.4652 7.77549 20.4652 9.46514H22.0001ZM18.3886 2.17573C18.9738 2.53432 19.4657 3.02631 19.8243 3.61147L21.133 2.80949C20.6479 2.0178 19.9823 1.35217 19.1906 0.867027L18.3886 2.17573ZM9.46514 2.10847e-07C7.80522 2.10847e-07 6.50639 -0.000808206 5.47045 0.0976906C4.42309 0.197274 3.56549 0.403747 2.80949 0.867027L3.61147 2.17573C4.08578 1.88508 4.68073 1.71458 5.61573 1.62568C6.56215 1.5357 7.77549 1.53489 9.46514 1.53489V2.10847e-07ZM1.53489 9.46514C1.53489 7.77549 1.5357 6.56215 1.62568 5.61573C1.71458 4.68073 1.88508 4.08578 2.17573 3.61147L0.867027 2.80949C0.403747 3.56549 0.197274 4.42309 0.0976906 5.47045C-0.000808206 6.50639 2.10847e-07 7.80522 2.10847e-07 9.46514H1.53489ZM2.80949 0.867027C2.0178 1.35217 1.35217 2.0178 0.867027 2.80949L2.17573 3.61147C2.53432 3.02631 3.02631 2.53432 3.61147 2.17573L2.80949 0.867027ZM9.99375 19.278C9.78603 18.927 9.60369 18.6173 9.42636 18.3739C9.23951 18.1177 9.02534 17.887 8.72825 17.7141L7.95657 19.041C8.00508 19.0691 8.07117 19.1206 8.18591 19.278C8.31011 19.4485 8.45042 19.6839 8.67292 20.0599L9.99375 19.278ZM6.67846 18.9214C7.12776 18.9292 7.41235 18.9349 7.62929 18.9588C7.83201 18.9813 7.91058 19.0142 7.95657 19.041L8.72825 17.7141C8.42868 17.5399 8.11695 17.4686 7.79822 17.4333C7.49372 17.3996 7.12571 17.3941 6.7049 17.3868L6.67846 18.9214ZM13.3271 20.0599C13.5496 19.6839 13.6899 19.4485 13.8141 19.278C13.9288 19.1206 13.9949 19.0691 14.0434 19.041L13.2718 17.7141C12.9747 17.887 12.7604 18.1177 12.5737 18.3739C12.3964 18.6173 12.214 18.927 12.0062 19.278L13.3271 20.0599ZM15.2952 17.3868C14.8743 17.3941 14.5063 17.3996 14.2018 17.4333C13.8831 17.4686 13.5714 17.5399 13.2718 17.7141L14.0434 19.041C14.0894 19.0142 14.168 18.9813 14.3707 18.9588C14.5877 18.9349 14.8722 18.9292 15.3216 18.9214L15.2952 17.3868Z" fill="#1C274C"/>
<path d="M12.7724 20.997L12.0084 22.2878L13.5364 19.7061L12.7724 20.997ZM12.0062 19.278L12.7701 17.9871L11.2421 20.5688L12.0062 19.278ZM8.67292 20.0599L7.90876 18.7691L9.43702 21.3507L8.67292 20.0599ZM8.72825 17.7141L10.0249 18.4682L7.43162 16.96L8.72825 17.7141ZM11.348 21.8969L12.0084 22.2878L13.5364 19.7061L12.876 19.3152L11.348 21.8969ZM13.4306 18.378L12.7701 17.9871L11.2423 20.5689L11.9028 20.9598L13.4306 18.378ZM8.56918 18.3781L7.90876 18.7691L9.43709 21.3506L10.0975 20.9596L8.56918 18.3781ZM10.6521 21.8969L11.3125 21.506L9.78444 18.9243L9.12403 19.3152L10.6521 21.8969ZM1.53489 7.96514H2.10847e-07V10.9651H1.53489V7.96514ZM1.02187 16.6839L2.43992 16.0966L1.29192 13.3249L-0.126133 13.9123L1.02187 16.6839ZM5.1919 18.1283L5.17868 18.8955L8.17824 18.9472L8.19146 18.18L5.1919 18.1283ZM2.53999 17.1994L2.24631 17.9084L5.01795 19.0564L5.31163 18.3474L2.53999 17.1994ZM20.2691 16.3903L20.9782 16.6839L22.1262 13.9123L21.4172 13.6186L20.2691 16.3903ZM16.8081 18.1283L16.7949 17.361L13.7954 17.4126L13.8086 18.1799L16.8081 18.1283ZM16.6884 18.3474L16.9821 19.0564L19.7537 17.9084L19.46 17.1994L16.6884 18.3474ZM17.5106 0.737596L17.1096 1.39195L19.6675 2.95952L20.0685 2.30517L17.5106 0.737596ZM21.2624 4.48945L21.9168 4.08845L20.3493 1.53052L19.6949 1.93152L21.2624 4.48945ZM4.48944 0.737624L4.08844 0.0832709L1.53053 1.65078L1.93153 2.30514L4.48944 0.737624ZM2.30514 1.93153L1.65078 1.53053L0.0832709 4.08844L0.737624 4.48944L2.30514 1.93153ZM9.63904 19.1317L10.0249 18.4683L7.43162 16.96L7.04578 17.6234L9.63904 19.1317ZM14.0912 18.769L12.7703 17.9872L11.2421 20.5688L12.5631 21.3507L14.0912 18.769ZM10.6875 21.506L12.0084 22.2878L13.5364 19.7061L12.2155 18.9243L10.6875 21.506ZM9.99166 22.2878L11.3125 21.506L9.78444 18.9243L8.46362 19.7061L9.99166 22.2878ZM9.22966 17.9872L7.90883 18.7691L9.43702 21.3507L10.7578 20.5688L9.22966 17.9872ZM14.0349 1.53489V2.10847e-07H11.0349V1.53489H14.0349ZM7.96514 2.10847e-07V1.53489H10.9651V2.10847e-07H7.96514ZM20.4652 11.9884H22.0001V8.9884H20.4652V11.9884ZM22.0001 7.96514H20.4652V10.9651H22.0001V7.96514ZM2.83368 16.4903L2.24631 17.9084L5.01795 19.0564L5.60532 17.6384L2.83368 16.4903ZM8.17824 18.9472L8.20468 17.4126L5.20512 17.361L5.17868 18.8955L8.17824 18.9472ZM19.5601 16.0966L20.9782 16.6839L22.1262 13.9123L20.7082 13.3249L19.5601 16.0966ZM19.7537 17.9084L19.1664 16.4904L16.3947 17.6384L16.9821 19.0564L19.7537 17.9084ZM13.7954 17.4126L13.8218 18.9472L16.8213 18.8956L16.7949 17.361L13.7954 17.4126ZM19.6675 2.95952L20.4695 1.65081L17.9117 0.0832415L17.1096 1.39195L19.6675 2.95952ZM20.3493 1.53052L19.0406 2.3325L20.608 4.89044L21.9168 4.08846L20.3493 1.53052ZM1.53053 1.65078L2.33251 2.95948L4.89043 1.39198L4.08845 0.083278L1.53053 1.65078ZM2.95948 2.33251L1.65078 1.53053L0.083278 4.08845L1.39198 4.89043L2.95948 2.33251ZM7.43159 16.96L6.65991 18.2869L9.25322 19.7951L10.0249 18.4682L7.43159 16.96ZM15.3401 18.2869L14.5684 16.9601L11.9751 18.4682L12.7467 19.7951L15.3401 18.2869ZM12.7724 20.997L10.1908 19.4688L10.1907 19.4689L12.7724 20.997ZM12.0062 19.278L9.4248 17.7495L9.42451 17.7499L12.0062 19.278ZM8.67292 20.0599L6.09119 21.5878L6.09132 21.588L8.67292 20.0599ZM10.5485 20.2152L7.96678 21.7432L7.96707 21.7437L10.5485 20.2152ZM1.86592 14.7108L-0.905741 15.8588L-0.905728 15.8588L1.86592 14.7108ZM0.44787 15.2981L-2.32379 16.4461L-2.32377 16.4462L0.44787 15.2981ZM6.67846 18.9214L6.73038 15.9218L6.73007 15.9218L6.67846 18.9214ZM3.63213 18.4824L2.48406 21.254L2.48416 21.2541L3.63213 18.4824ZM21.5522 15.2981L18.7806 14.1498L18.7805 14.15L21.5522 15.2981ZM15.2952 17.3868L15.3469 20.3863H15.347L15.2952 17.3868ZM18.3679 18.4824L19.5159 21.254L19.516 21.254L18.3679 18.4824ZM18.3886 2.17573L16.821 4.73361L16.8211 4.7337L18.3886 2.17573ZM21.133 2.80949L23.691 1.24212L23.691 1.24204L21.133 2.80949ZM2.80949 0.867027L1.24199 -1.69089L1.24199 -1.69089L2.80949 0.867027ZM0.867027 2.80949L-1.69089 1.24199L-1.69089 1.24199L0.867027 2.80949ZM8.72825 17.7141L10.2368 15.121L10.2367 15.121L8.72825 17.7141ZM13.3271 20.0599L15.9087 21.588L15.909 21.5876L13.3271 20.0599ZM11.4515 20.2152L8.8698 18.6871L8.86975 18.6872L11.4515 20.2152ZM9.22764 20.997L11.8093 19.4689L11.8092 19.4688L9.22764 20.997ZM9.99375 19.278L7.41202 20.8059L7.41207 20.806L9.99375 19.278ZM6.7049 17.3868L6.65305 20.3863H6.65311L6.7049 17.3868ZM4.2195 17.0644L3.07133 19.836L3.07138 19.836L4.2195 17.0644ZM20.4183 13.2355L23.4113 13.4399L23.4114 13.4396L20.4183 13.2355ZM20.1341 14.7108L22.9057 15.8589L22.9059 15.8586L20.1341 14.7108ZM21.9496 13.34L24.9426 13.5443L24.9427 13.5441L21.9496 13.34ZM15.3216 18.9214L15.2699 15.9218L15.2696 15.9218L15.3216 18.9214ZM17.7805 17.0644L16.6324 14.2928L16.6323 14.2928L17.7805 17.0644ZM16.3843 1.62568L16.1003 4.61221L16.1004 4.61221L16.3843 1.62568ZM19.1906 0.867027L20.7581 -1.6909L20.758 -1.69097L19.1906 0.867027ZM16.5296 0.0976906L16.8136 -2.88884L16.8136 -2.88884L16.5296 0.0976906ZM21.9023 5.47045L18.9158 5.75435L18.9158 5.75453L21.9023 5.47045ZM19.8243 3.61147L17.2663 5.17884L17.2665 5.17916L19.8243 3.61147ZM20.3744 5.61573L23.3609 5.3319L23.3609 5.33171L20.3744 5.61573ZM5.47045 0.0976906L5.75441 3.08422L5.75442 3.08422L5.47045 0.0976906ZM3.61147 2.17573L2.04398 -0.382191L2.04396 -0.382179L3.61147 2.17573ZM5.61573 1.62568L5.33178 -1.36085L5.33177 -1.36085L5.61573 1.62568ZM1.62568 5.61573L-1.36085 5.33177L-1.36085 5.33178L1.62568 5.61573ZM2.17573 3.61147L-0.382179 2.04396L-0.382191 2.04398L2.17573 3.61147ZM0.0976906 5.47045L3.08422 5.75442L3.08422 5.75441L0.0976906 5.47045ZM9.42636 18.3739L11.8508 16.6071L11.8503 16.6063L9.42636 18.3739ZM7.95657 19.041L6.4456 21.6327L6.45132 21.636L7.95657 19.041ZM8.18591 19.278L10.6107 17.5115L10.6101 17.5106L8.18591 19.278ZM7.62929 18.9588L7.9604 15.9772L7.95841 15.9769L7.62929 18.9588ZM7.79822 17.4333L8.12847 14.4515L8.12789 14.4514L7.79822 17.4333ZM13.8141 19.278L11.3897 17.5109L11.3895 17.5112L13.8141 19.278ZM14.0434 19.041L15.5489 21.6359L15.5529 21.6336L14.0434 19.041ZM13.2718 17.7141L11.7635 15.1209L11.7631 15.1211L13.2718 17.7141ZM12.5737 18.3739L10.1493 16.6069L10.1492 16.6071L12.5737 18.3739ZM14.2018 17.4333L13.8722 14.4514L13.8716 14.4515L14.2018 17.4333ZM14.3707 18.9588L14.0416 15.9769L14.0396 15.9772L14.3707 18.9588ZM-3 9.46514C-3 11.5458 -1.31328 13.2326 0.767444 13.2326V7.23258C2.00048 7.23258 3 8.23214 3 9.46514H-3ZM0.767444 13.2326C2.84817 13.2326 4.53489 11.5458 4.53489 9.46514H-1.46511C-1.46511 8.23214 -0.465592 7.23258 0.767444 7.23258V13.2326ZM4.63758 13.5628C3.84129 11.6402 1.63736 10.7276 -0.28477 11.5238L2.01119 17.0671C0.872223 17.5388 -0.43384 16.9981 -0.905741 15.8588L4.63758 13.5628ZM-0.28477 11.5238C-2.20714 12.32 -3.11999 14.5238 -2.32379 16.4461L3.21953 14.1501C3.69134 15.2892 3.1504 16.5953 2.01119 17.0671L-0.28477 11.5238ZM15.354 22.5251L15.9087 21.588L10.7455 18.5317L10.1908 19.4688L15.354 22.5251ZM9.42451 17.7499L8.8698 18.6871L14.0332 21.7432L14.5879 20.806L9.42451 17.7499ZM6.09132 21.588L6.64604 22.5251L11.8092 19.4688L11.2545 18.5317L6.09132 21.588ZM13.1301 18.6871L12.5754 17.7499L7.41207 20.806L7.96678 21.7432L13.1301 18.6871ZM8.86975 18.6872C9.83447 17.0572 12.1657 17.0584 13.1299 18.6866L7.96707 21.7437C9.3258 24.0383 12.6741 24.0395 14.0332 21.7431L8.86975 18.6872ZM6.64597 22.525C8.59919 25.825 13.4009 25.825 15.3541 22.525L10.1907 19.4689C10.5608 18.8437 11.4393 18.8437 11.8093 19.4689L6.64597 22.525ZM9.46514 4.53489H12.5349V-1.46511H9.46514V4.53489ZM12.5349 -3H9.46514V3H12.5349V-3ZM17.4652 9.46514V10.4884H23.4652V9.46514H17.4652ZM25.0001 10.4884V9.46514H19.0001V10.4884H25.0001ZM6.75675 14.3872C6.15099 14.3768 5.7904 14.3531 5.55902 14.3235C5.34815 14.2965 5.32119 14.2735 5.36762 14.2928L3.07138 19.836C4.17926 20.2949 5.37292 20.3642 6.65305 20.3863L6.75675 14.3872ZM2.48416 21.2541C3.88527 21.8344 5.3395 21.8988 6.62684 21.9209L6.73007 15.9218C5.44847 15.8998 5.02636 15.8127 4.78009 15.7107L2.48416 21.2541ZM-2.32377 16.4462C-1.42213 18.6229 0.307295 20.3524 2.48406 21.254L4.78019 15.7108C4.0736 15.4181 3.51219 14.8567 3.21951 14.1501L-2.32377 16.4462ZM5.36766 14.2928C5.03699 14.1558 4.77444 13.8932 4.63757 13.5627L-0.905728 15.8588C-0.159831 17.6596 1.27083 19.0901 3.07133 19.836L5.36766 14.2928ZM17.4652 10.4884C17.4652 11.7324 17.4631 12.476 17.4252 13.0314L23.4114 13.4396C23.4664 12.6325 23.4652 11.6493 23.4652 10.4884H17.4652ZM17.4253 13.0312C17.3896 13.5534 17.3353 13.6285 17.3624 13.563L22.9059 15.8586C23.232 15.071 23.3549 14.2666 23.4113 13.4399L17.4253 13.0312ZM24.3237 16.4464C24.7403 15.4408 24.8808 14.4499 24.9426 13.5443L18.9566 13.1357C18.9156 13.7354 18.8439 13.9971 18.7806 14.1498L24.3237 16.4464ZM24.9427 13.5441C25.0021 12.6729 25.0001 11.6293 25.0001 10.4884H19.0001C19.0001 11.7104 18.9988 12.5159 18.9566 13.1359L24.9427 13.5441ZM15.3732 21.9209C16.6605 21.8988 18.1148 21.8344 19.5159 21.254L17.2198 15.7108C16.9737 15.8127 16.5516 15.8998 15.2699 15.9218L15.3732 21.9209ZM16.6323 14.2928C16.6789 14.2735 16.6519 14.2965 16.441 14.3235C16.2096 14.3531 15.849 14.3768 15.2433 14.3872L15.347 20.3863C16.627 20.3642 17.8208 20.2949 18.9287 19.8359L16.6323 14.2928ZM17.3625 13.5626C17.2256 13.8932 16.963 14.1558 16.6324 14.2928L18.9287 19.836C20.7293 19.0901 22.1598 17.6595 22.9057 15.8589L17.3625 13.5626ZM19.516 21.254C21.6927 20.3524 23.4221 18.6229 24.3238 16.4462L18.7805 14.15C18.4879 14.8566 17.9264 15.4181 17.2198 15.7108L19.516 21.254ZM12.5349 4.53489C14.2833 4.53489 15.329 4.53888 16.1003 4.61221L16.6683 -1.36085C15.5467 -1.46748 14.1657 -1.46511 12.5349 -1.46511V4.53489ZM16.1004 4.61221C16.8161 4.68027 16.8975 4.78051 16.821 4.73361L19.9561 -0.382145C18.931 -1.01035 17.8226 -1.2511 16.6683 -1.36085L16.1004 4.61221ZM20.758 -1.69097C19.4515 -2.49149 18.0808 -2.76835 16.8136 -2.88884L16.2456 3.08422C17.0731 3.1629 17.4175 3.29898 17.6232 3.42502L20.758 -1.69097ZM16.8136 -2.88884C15.6028 -3.00396 14.1374 -3 12.5349 -3V3C14.2523 3 15.3845 3.00234 16.2456 3.08422L16.8136 -2.88884ZM25.0001 9.46514C25.0001 7.8627 25.004 6.39718 24.8888 5.18637L18.9158 5.75453C18.9977 6.6156 19.0001 7.74774 19.0001 9.46514H25.0001ZM24.8889 5.18655C24.7684 3.91928 24.4915 2.54851 23.691 1.24212L18.575 4.37686C18.701 4.58247 18.8371 4.92691 18.9158 5.75435L24.8889 5.18655ZM17.2665 5.17916C17.2196 5.10258 17.3198 5.18392 17.3879 5.89976L23.3609 5.33171C23.2512 4.17755 23.0104 3.06897 22.3821 2.04378L17.2665 5.17916ZM17.3879 5.89956C17.4612 6.67096 17.4652 7.71677 17.4652 9.46514H23.4652C23.4652 7.83422 23.4675 6.45335 23.3609 5.3319L17.3879 5.89956ZM16.8211 4.7337C17.0026 4.84491 17.1552 4.99746 17.2663 5.17884L22.3823 2.04409C21.7763 1.05516 20.9449 0.223737 19.956 -0.382228L16.8211 4.7337ZM23.691 1.24204C22.9585 0.0466468 21.9534 -0.958385 20.7581 -1.6909L17.6231 3.42495C18.0111 3.66273 18.3374 3.98896 18.5751 4.37694L23.691 1.24204ZM9.46514 -3C7.86265 -3 6.39722 -3.00396 5.18649 -2.88884L5.75442 3.08422C6.61556 3.00234 7.74779 3 9.46514 3V-3ZM5.18649 -2.88884C3.91932 -2.76836 2.54847 -2.4915 1.24199 -1.69089L4.37699 3.42495C4.58252 3.299 4.92687 3.1629 5.75441 3.08422L5.18649 -2.88884ZM5.17896 4.73366C5.10251 4.7805 5.18398 4.68026 5.89969 4.61221L5.33177 -1.36085C4.17748 -1.2511 3.06904 -1.01035 2.04398 -0.382191L5.17896 4.73366ZM5.89969 4.61221C6.671 4.53888 7.71672 4.53489 9.46514 4.53489V-1.46511C7.83427 -1.46511 6.45331 -1.46748 5.33178 -1.36085L5.89969 4.61221ZM4.53489 9.46514C4.53489 7.71672 4.53888 6.671 4.61221 5.89969L-1.36085 5.33178C-1.46748 6.45331 -1.46511 7.83427 -1.46511 9.46514H4.53489ZM4.61221 5.89969C4.68026 5.18398 4.7805 5.10251 4.73366 5.17896L-0.382191 2.04398C-1.01035 3.06904 -1.2511 4.17748 -1.36085 5.33177L4.61221 5.89969ZM-1.69089 1.24199C-2.4915 2.54847 -2.76836 3.91932 -2.88884 5.18649L3.08422 5.75441C3.1629 4.92687 3.299 4.58252 3.42495 4.37699L-1.69089 1.24199ZM-2.88884 5.18649C-3.00396 6.39722 -3 7.86265 -3 9.46514H3C3 7.74779 3.00234 6.61556 3.08422 5.75442L-2.88884 5.18649ZM1.24199 -1.69089C0.0466408 -0.958377 -0.958377 0.0466408 -1.69089 1.24199L3.42494 4.37699C3.66273 3.98897 3.98897 3.66273 4.37699 3.42494L1.24199 -1.69089ZM4.73365 5.17898C4.84487 4.99747 4.99747 4.84487 5.17898 4.73365L2.04396 -0.382179C1.05514 0.223775 0.223775 1.05514 -0.382179 2.04396L4.73365 5.17898ZM12.5755 17.75C12.3955 17.4459 12.1317 16.9925 11.8508 16.6071L7.00187 20.1408C7.07563 20.242 7.17656 20.4081 7.41202 20.8059L12.5755 17.75ZM11.8503 16.6063C11.5229 16.1574 11.0194 15.5763 10.2368 15.121L7.21974 20.3073C7.13237 20.2565 7.06586 20.2013 7.02305 20.1595C6.98451 20.1219 6.97645 20.1059 7.00241 20.1416L11.8503 16.6063ZM6.45132 21.636C6.26199 21.5262 6.09209 21.3957 5.9506 21.2575C5.83236 21.1421 5.76895 21.0552 5.76177 21.0453L10.6101 17.5106C10.3559 17.162 9.99939 16.7578 9.46181 16.446L6.45132 21.636ZM5.76113 21.0445C5.75731 21.0392 5.77725 21.0663 5.83902 21.1665C5.90052 21.2662 5.97697 21.3948 6.09119 21.5878L11.2547 18.5319C11.0622 18.2067 10.8389 17.8248 10.6107 17.5115L5.76113 21.0445ZM6.62654 21.9209C6.85692 21.9249 7.01305 21.9279 7.13621 21.9322C7.26009 21.9365 7.30019 21.9407 7.30017 21.9407L7.95841 15.9769C7.57058 15.9341 7.12198 15.9286 6.73038 15.9218L6.62654 21.9209ZM7.29818 21.9405C7.2919 21.9398 7.18941 21.9287 7.03376 21.8846C6.84716 21.8318 6.64489 21.7489 6.4456 21.6327L9.46754 16.4493C8.92319 16.1319 8.38656 16.0245 7.9604 15.9772L7.29818 21.9405ZM10.2367 15.121C9.44155 14.6584 8.67415 14.5119 8.12847 14.4515L7.46797 20.415C7.51697 20.4204 7.50193 20.422 7.45181 20.4077C7.39574 20.3918 7.3122 20.3611 7.21979 20.3073L10.2367 15.121ZM8.12789 14.4514C7.65303 14.3989 7.12365 14.3936 6.75668 14.3872L6.65311 20.3863C7.12778 20.3945 7.33441 20.4003 7.46855 20.4151L8.12789 14.4514ZM15.909 21.5876C16.0232 21.3946 16.0996 21.266 16.1611 21.1664C16.2228 21.0662 16.2426 21.0393 16.2387 21.0447L11.3895 17.5112C11.161 17.8248 10.9376 18.2071 10.7453 18.5321L15.909 21.5876ZM16.2385 21.045C16.2312 21.055 16.1677 21.142 16.0495 21.2575C15.9079 21.3957 15.7381 21.5261 15.5489 21.6359L12.5379 16.4461C12.0006 16.7579 11.644 17.162 11.3897 17.5109L16.2385 21.045ZM11.7631 15.1211C10.9809 15.5762 10.4772 16.157 10.1493 16.6069L14.9981 20.1409C15.0237 20.1058 15.0155 20.1219 14.9769 20.1596C14.9341 20.2014 14.8676 20.2565 14.7804 20.3072L11.7631 15.1211ZM10.1492 16.6071C9.86844 16.9923 9.60457 17.4459 9.4248 17.7495L14.5876 20.8065C14.8235 20.4081 14.9243 20.2422 14.9982 20.1408L10.1492 16.6071ZM15.2434 14.3872C14.8763 14.3936 14.347 14.3989 13.8722 14.4514L14.5314 20.4151C14.6656 20.4003 14.8722 20.3945 15.3469 20.3863L15.2434 14.3872ZM13.8716 14.4515C13.3257 14.5119 12.5585 14.6584 11.7635 15.1209L14.7801 20.3074C14.6878 20.3611 14.6043 20.3918 14.5482 20.4077C14.4981 20.4219 14.4831 20.4204 14.532 20.415L13.8716 14.4515ZM15.5529 21.6336C15.3544 21.7491 15.1527 21.8318 14.9661 21.8847C14.8106 21.9287 14.7082 21.9398 14.7019 21.9405L14.0396 15.9772C13.6129 16.0245 13.0773 16.1321 12.5339 16.4484L15.5529 21.6336ZM14.6999 21.9407C14.6999 21.9407 14.7399 21.9365 14.8638 21.9322C14.987 21.9279 15.1431 21.9249 15.3735 21.9209L15.2696 15.9218C14.878 15.9286 14.4294 15.9341 14.0416 15.9769L14.6999 21.9407Z" fill="#F58C3C" mask="url(#path-3-inside-1_38_28)"/>
</svg>
