<svg width="18" height="19" viewBox="0 0 18 19" fill="none" xmlns="http://www.w3.org/2000/svg">
<path fill-rule="evenodd" clip-rule="evenodd" d="M12.3763 17.5127C12.8521 17.8418 13.4561 18.1928 14.1644 18.464C15.5375 18.9896 16.5633 19.0203 17.0375 18.9932C18.0955 18.9326 18.2378 18.2555 17.6704 17.4153C17.0226 16.4559 16.3984 15.3716 16.4601 14.1716C17.4322 12.7204 18 10.9695 18 9.08698C18 4.06838 13.9705 0 9 0C4.02944 0 0 4.06838 0 9.08698C0 14.1055 4.02944 18.174 9 18.174C10.1927 18.174 11.3329 17.9393 12.3763 17.5127ZM9 1.65218C4.93318 1.65218 1.63636 4.98085 1.63636 9.08698C1.63636 13.1931 4.93318 16.5218 9 16.5218C10.1207 16.5218 11.1808 16.2696 12.1295 15.8191C12.4065 15.6876 12.733 15.7231 12.9759 15.9113C13.4038 16.2429 14.0105 16.638 14.7446 16.9191C15.0636 17.0412 15.3551 17.1294 15.6155 17.1928C15.3435 16.6912 15.0682 16.0937 14.9413 15.5314C14.8106 14.952 14.6145 13.9429 14.9956 13.4043C15.857 12.1874 16.3636 10.6981 16.3636 9.08698C16.3636 4.98085 13.0669 1.65218 9 1.65218Z" fill="white"/>
</svg>
