<svg width="24" height="24" viewBox="0 0 24 24" fill="none" xmlns="http://www.w3.org/2000/svg">
<path d="M3 13.7658L3.74721 13.8304C3.71261 14.2306 3.36893 14.5324 2.96767 14.5151C2.5664 14.4978 2.25 14.1674 2.25 13.7658H3ZM20.2361 11.9426L19.5306 7.8629L21.0087 7.60721L21.7142 11.687L20.2361 11.9426ZM13.245 2.75001H8.59635V1.25001H13.245V2.75001ZM7.68498 3.58751L6.87282 12.9802L5.3784 12.851L6.19056 3.45831L7.68498 3.58751ZM19.5306 7.8629C19.0238 4.9323 16.3813 2.75001 13.245 2.75001V1.25001C17.0712 1.25001 20.3708 3.91901 21.0087 7.60721L19.5306 7.8629ZM13.2548 18.8999L12.5921 14.8553L14.0724 14.6128L14.7351 18.6573L13.2548 18.8999ZM7.18773 13.7544L8.62647 14.9942L7.64729 16.1305L6.20855 14.8907L7.18773 13.7544ZM11.244 19.0279L11.7197 20.8618L10.2678 21.2384L9.79208 19.4046L11.244 19.0279ZM12.4382 21.2216L12.5832 21.175L13.042 22.6031L12.897 22.6497L12.4382 21.2216ZM10.5235 17.184C10.8354 17.768 11.0777 18.3866 11.244 19.0279L9.79208 19.4046C9.65573 18.8789 9.45699 18.3711 9.20042 17.8908L10.5235 17.184ZM12.5832 21.175C12.8896 21.0766 13.1072 20.8399 13.1787 20.5642L14.6307 20.9408C14.4252 21.7328 13.819 22.3535 13.042 22.6031L12.5832 21.175ZM11.7197 20.8618C11.7548 20.9968 11.8523 21.1209 11.9998 21.192L11.3486 22.5433C10.8166 22.2869 10.417 21.8137 10.2678 21.2384L11.7197 20.8618ZM11.9998 21.192C12.1345 21.2569 12.2931 21.2682 12.4382 21.2216L12.897 22.6497C12.3873 22.8135 11.8312 22.7758 11.3486 22.5433L11.9998 21.192ZM14.1537 13.0158H19.3348V14.5158H14.1537V13.0158ZM4.71881 2.59391L3.74721 13.8304L2.25279 13.7012L3.22439 2.46471L4.71881 2.59391ZM3.75 2.48731V13.7658H2.25V2.48731H3.75ZM3.22439 2.46471C3.2112 2.61721 3.33146 2.75001 3.48671 2.75001V1.25001C4.21268 1.25001 4.78122 1.87211 4.71881 2.59391L3.22439 2.46471ZM14.7351 18.6573C14.8596 19.4174 14.8241 20.1952 14.6307 20.9408L13.1787 20.5642C13.3197 20.0208 13.3456 19.4539 13.2548 18.8999L14.7351 18.6573ZM8.59635 2.75001C8.12244 2.75001 7.72601 3.113 7.68498 3.58751L6.19056 3.45831C6.29852 2.2098 7.3427 1.25001 8.59635 1.25001V2.75001ZM8.62647 14.9942C9.30632 15.58 10.0392 16.2773 10.5235 17.184L9.20042 17.8908C8.85404 17.2423 8.3025 16.6951 7.64729 16.1305L8.62647 14.9942ZM21.7142 11.687C21.9695 13.1635 20.8341 14.5158 19.3348 14.5158V13.0158C19.9014 13.0158 20.3332 12.5041 20.2361 11.9426L21.7142 11.687ZM3.48671 2.75001C3.63292 2.75001 3.75 2.63161 3.75 2.48731H2.25C2.25 1.80471 2.80289 1.25001 3.48671 1.25001V2.75001ZM12.5921 14.8553C12.4344 13.8924 13.1766 13.0158 14.1537 13.0158V14.5158C14.1038 14.5158 14.0639 14.561 14.0724 14.6128L12.5921 14.8553ZM6.87282 12.9802C6.8474 13.2742 6.96475 13.5622 7.18773 13.7544L6.20855 14.8907C5.62022 14.3837 5.31149 13.6247 5.3784 12.851L6.87282 12.9802Z" fill="#E4E4E4"/>
</svg>
