<svg width="13" height="13" viewBox="0 0 13 13" fill="none" xmlns="http://www.w3.org/2000/svg">
<path fill-rule="evenodd" clip-rule="evenodd" d="M11.8752 1.02273C11.1782 0.325761 10.0483 0.325755 9.35128 1.02273L8.35197 2.02203L3.64872 6.72527C3.57248 6.80153 3.51839 6.89707 3.49224 7.00166L2.89735 9.38125C2.84666 9.58399 2.90606 9.79845 3.05382 9.94616C3.20158 10.0939 3.41604 10.1534 3.61876 10.1027L5.99832 9.50778C6.10297 9.48161 6.19845 9.42753 6.27471 9.35126L10.9438 4.68225L11.9773 3.64873C12.6742 2.95177 12.6742 1.82176 11.9773 1.12479L11.8752 1.02273ZM10.1926 1.86404C10.4249 1.63172 10.8016 1.63172 11.0339 1.86404L11.136 1.9661C11.3683 2.19843 11.3683 2.5751 11.136 2.80742L10.5313 3.41214L9.60595 2.45068L10.1926 1.86404ZM8.76447 3.29214L9.68977 4.25361L5.54995 8.39348L4.29209 8.70794L4.60654 7.45009L8.76447 3.29214ZM1.68979 4.17145C1.68979 3.8429 1.95614 3.57656 2.28469 3.57656H5.25917C5.58773 3.57656 5.85406 3.31021 5.85406 2.98166C5.85406 2.65311 5.58773 2.38676 5.25917 2.38676H2.28469C1.29903 2.38676 0.5 3.1858 0.5 4.17145V10.7153C0.5 11.701 1.29903 12.5 2.28469 12.5H8.82854C9.81422 12.5 10.6132 11.701 10.6132 10.7153V7.74082C10.6132 7.41231 10.3469 7.14592 10.0183 7.14592C9.68977 7.14592 9.42344 7.41231 9.42344 7.74082V10.7153C9.42344 11.0439 9.1571 11.3102 8.82854 11.3102H2.28469C1.95614 11.3102 1.68979 11.0439 1.68979 10.7153V4.17145Z" fill="#F58C3C"/>
</svg>
