<svg width="35" height="29" viewBox="0 0 35 29" fill="none" xmlns="http://www.w3.org/2000/svg">
<path d="M1.59092 29H11.1365C11.5584 29 11.9631 28.8311 12.2614 28.5304C12.5598 28.2297 12.7274 27.8219 12.7274 27.3967C12.7274 26.9715 12.5598 26.5637 12.2614 26.263C11.9631 25.9623 11.5584 25.7934 11.1365 25.7934H3.2948C3.68085 23.1237 5.00686 20.6829 7.03069 18.9168C9.05453 17.1507 11.6412 16.177 14.3183 16.1737C16.1916 16.1901 18.0115 15.5454 19.4627 14.3515C20.9139 13.1576 21.9048 11.4896 22.2638 9.63673C22.6228 7.78381 22.3272 5.86271 21.4283 4.20636C20.5293 2.55002 19.0837 1.26282 17.3419 0.567861C15.6001 -0.127102 13.6719 -0.186033 11.8915 0.401282C10.1111 0.988597 8.59073 2.18514 7.59384 3.78354C6.59695 5.38195 6.18638 7.28147 6.4333 9.1529C6.68022 11.0243 7.56906 12.7497 8.94577 14.0301C6.30516 15.1096 4.04376 16.9578 2.45035 19.3387C0.856943 21.7195 0.00384424 24.525 0 27.3967C0 27.8219 0.167615 28.2297 0.465971 28.5304C0.764327 28.8311 1.16899 29 1.59092 29ZM14.3183 3.34737C15.2623 3.34737 16.1851 3.62946 16.9699 4.15798C17.7548 4.68649 18.3665 5.43769 18.7278 6.31658C19.089 7.19547 19.1835 8.16257 18.9994 9.09559C18.8152 10.0286 18.3607 10.8857 17.6932 11.5583C17.0257 12.231 16.1753 12.6891 15.2494 12.8747C14.3236 13.0603 13.364 12.965 12.4919 12.601C11.6197 12.2369 10.8743 11.6204 10.3499 10.8295C9.82547 10.0385 9.54555 9.10854 9.54555 8.15724C9.54555 6.88158 10.0484 5.65817 10.9435 4.75614C11.8385 3.85412 13.0525 3.34737 14.3183 3.34737ZM30.5569 10.2303C30.2585 9.92972 29.854 9.76087 29.4321 9.76087C29.0102 9.76087 28.6057 9.92972 28.3073 10.2303L18.364 20.2508C18.1902 20.4274 18.059 20.6419 17.9806 20.8777L15.992 26.8901C15.9124 27.131 15.8907 27.3875 15.9286 27.6385C15.9666 27.8895 16.0632 28.1278 16.2105 28.3338C16.3578 28.5399 16.5515 28.7077 16.7757 28.8235C16.9999 28.9393 17.2482 28.9998 17.5002 29C17.671 28.9997 17.8407 28.9721 18.0029 28.9182L23.9689 26.9141C24.2033 26.8352 24.4163 26.7024 24.5909 26.5261L34.5342 16.5056C34.8325 16.2049 35 15.7972 35 15.372C35 14.9469 34.8325 14.5392 34.5342 14.2385L30.5569 10.2303ZM22.6023 23.9913L20.0106 24.8619L20.8745 22.2502L29.4321 13.6309L31.1598 15.372L22.6023 23.9913Z" fill="black"/>
</svg>
