<svg width="25" height="25" viewBox="0 0 25 25" fill="none" xmlns="http://www.w3.org/2000/svg">
<path d="M8.52266 11.3637C9.46406 11.3637 10.2272 10.6005 10.2272 9.65914C10.2272 8.71774 9.46406 7.95459 8.52266 7.95459C7.58126 7.95459 6.81812 8.71774 6.81812 9.65914C6.81812 10.6005 7.58126 11.3637 8.52266 11.3637Z" fill="white"/>
<path d="M18.1818 9.65914C18.1818 10.6005 17.4186 11.3637 16.4773 11.3637C15.5359 11.3637 14.7727 10.6005 14.7727 9.65914C14.7727 8.71774 15.5359 7.95459 16.4773 7.95459C17.4186 7.95459 18.1818 8.71774 18.1818 9.65914Z" fill="white"/>
<path fill-rule="evenodd" clip-rule="evenodd" d="M8.18173 13.6364C7.45615 13.6364 6.754 14.2457 6.83702 15.1066C6.88689 15.6237 7.08218 16.805 7.90313 17.8791C8.76964 19.0128 10.2265 19.8864 12.4999 19.8864C14.7733 19.8864 16.2301 19.0128 17.0967 17.8791C17.9176 16.805 18.113 15.6237 18.1628 15.1066C18.2458 14.2457 17.5437 13.6364 16.8181 13.6364H8.18173ZM9.70885 16.499C9.56271 16.3078 9.45063 16.1058 9.3648 15.9091H15.635C15.5492 16.1058 15.4371 16.3078 15.2909 16.499C14.8841 17.0314 14.1156 17.6136 12.4999 17.6136C10.8842 17.6136 10.1157 17.0314 9.70885 16.499Z" fill="white"/>
<path fill-rule="evenodd" clip-rule="evenodd" d="M12.5 25C19.4035 25 25 19.4035 25 12.5C25 5.59644 19.4035 0 12.5 0C5.59644 0 0 5.59644 0 12.5C0 19.4035 5.59644 25 12.5 25ZM12.5 22.7195C6.85592 22.7195 2.28049 18.1441 2.28049 12.5C2.28049 6.85592 6.85592 2.28049 12.5 2.28049C18.1441 2.28049 22.7195 6.85592 22.7195 12.5C22.7195 18.1441 18.1441 22.7195 12.5 22.7195Z" fill="white"/>
</svg>
