<svg width="27" height="30" viewBox="0 0 27 30" fill="none" xmlns="http://www.w3.org/2000/svg">
<path d="M0 26.1079V11.3993C0 10.8818 0.115714 10.3915 0.347143 9.92849C0.578571 9.46544 0.897465 9.08411 1.30382 8.78449L11.0825 1.4302C11.6529 0.994394 12.3048 0.776489 13.0382 0.776489C13.7716 0.776489 14.4235 0.994394 14.994 1.4302L24.7726 8.78449C25.1801 9.08411 25.4995 9.46544 25.731 9.92849C25.9624 10.3915 26.0776 10.8818 26.0765 11.3993V26.1079C26.0765 27.0068 25.757 27.7765 25.1182 28.4172C24.4793 29.0578 23.7122 29.3776 22.8169 29.3765H17.9276C17.4658 29.3765 17.079 29.2196 16.7672 28.9058C16.4553 28.592 16.2989 28.2042 16.2978 27.7422V19.5708C16.2978 19.1077 16.1413 18.7199 15.8284 18.4072C15.5155 18.0945 15.1287 17.9376 14.668 17.9365H11.4085C10.9467 17.9365 10.5599 18.0934 10.2481 18.4072C9.93622 18.7209 9.77976 19.1088 9.77868 19.5708V27.7422C9.77868 28.2052 9.62222 28.5937 9.3093 28.9074C8.99638 29.2212 8.60958 29.3776 8.1489 29.3765H3.25956C2.36318 29.3765 1.5961 29.0567 0.95831 28.4172C0.320523 27.7776 0.00108652 27.0079 0 26.1079Z" fill="white"/>
</svg>
