<svg width="93" height="118" viewBox="0 0 93 118" fill="none" xmlns="http://www.w3.org/2000/svg">
<g filter="url(#filter0_i_251_55)">
<path d="M82.9332 117.293H0.439636V32.6567C0.439636 14.6497 15.0901 0 33.098 0H50.2748C68.2827 0 82.9332 14.6497 82.9332 32.6567V117.293Z" fill="#F2F2F2"/>
<path d="M65.7564 117.293H0.439625V32.6567C0.421595 25.7569 2.6066 19.0314 6.67652 13.4595C6.82655 13.255 6.97619 13.0532 7.13053 12.8535C9.09911 10.2717 11.4418 7.99801 14.0813 6.10736C14.2304 5.99888 14.38 5.89229 14.532 5.78569C16.7406 4.25736 19.1297 3.00798 21.645 2.06599C21.7943 2.00938 21.9464 1.95266 22.0985 1.89825C24.3733 1.08648 26.7314 0.530426 29.1293 0.240346C29.2779 0.22004 29.4305 0.204151 29.5832 0.188261C31.9199 -0.0615735 34.2766 -0.0615735 36.6133 0.188261C36.7655 0.204151 36.9181 0.220038 37.0685 0.240563C39.4658 0.530662 41.8233 1.08665 44.0975 1.89826C44.2496 1.95267 44.4017 2.00938 44.5515 2.0661C47.0358 2.99621 49.3968 4.22695 51.5819 5.73085C51.7337 5.83513 51.8856 5.94173 52.0353 6.04833C53.5148 7.10436 54.9045 8.28084 56.1902 9.56576C57.2212 10.5964 58.182 11.695 59.066 12.8542C59.2198 13.0532 59.3695 13.255 59.5192 13.4592C63.5893 19.0311 65.7744 25.7567 65.7564 32.6567V117.293Z" fill="#C8C8C8"/>
<path d="M60.4452 79.4383C62.4423 79.4383 64.0613 77.8194 64.0613 75.8224C64.0613 73.8253 62.4423 72.2064 60.4452 72.2064C58.448 72.2064 56.829 73.8253 56.829 75.8224C56.829 77.8194 58.448 79.4383 60.4452 79.4383Z" fill="#FF8E00"/>
<path d="M76.1753 114.758H73.4044L72.0861 104.071L76.1757 104.071L76.1753 114.758Z" fill="#FFB8B8"/>
<path d="M71.4251 113.966H76.7689V117.331H68.0605C68.0605 116.889 68.1476 116.451 68.3167 116.043C68.4858 115.635 68.7336 115.264 69.046 114.952C69.3584 114.639 69.7294 114.391 70.1376 114.222C70.5458 114.053 70.9833 113.966 71.4251 113.966Z" fill="#2F2E41"/>
<path d="M89.9619 114.758H87.191L85.8727 104.071L89.9623 104.071L89.9619 114.758Z" fill="#FFB8B8"/>
<path d="M85.2118 113.966H90.5555V117.331H81.8472C81.8472 116.889 81.9342 116.451 82.1033 116.043C82.2724 115.635 82.5202 115.264 82.8326 114.952C83.1451 114.639 83.516 114.391 83.9242 114.222C84.3324 114.053 84.7699 113.966 85.2118 113.966Z" fill="#2F2E41"/>
<path d="M62.2753 76.5387C62.076 76.245 61.9434 75.9112 61.8871 75.5608C61.8307 75.2104 61.8519 74.8519 61.9491 74.5105C62.0462 74.1691 62.2171 73.8532 62.4496 73.585C62.6821 73.3168 62.9706 73.1029 63.2947 72.9582L72.7138 46.9986L77.3486 49.5278L66.594 74.3358C66.801 74.8964 66.795 75.5134 66.5774 76.07C66.3598 76.6265 65.9455 77.0839 65.4132 77.3554C64.8808 77.6269 64.2674 77.6938 63.6891 77.5433C63.1107 77.3928 62.6077 77.0353 62.2753 76.5387Z" fill="#FFB8B8"/>
<path d="M88.5464 81.4166C88.2385 81.2401 87.973 80.9982 87.7687 80.708C87.5644 80.4177 87.4262 80.0862 87.3638 79.7368C87.3015 79.3874 87.3165 79.0286 87.4079 78.6856C87.4992 78.3426 87.6647 78.0238 87.8926 77.7517L84.9746 50.2908L90.2492 50.5318L91.4619 77.5432C91.8937 77.9563 92.1589 78.5135 92.2073 79.1091C92.2558 79.7047 92.0841 80.2973 91.7247 80.7748C91.3653 81.2523 90.8433 81.5813 90.2575 81.6996C89.6717 81.8179 89.0629 81.7172 88.5464 81.4166Z" fill="#FFB8B8"/>
<path d="M80.1319 42.1902C83.1977 42.1902 85.683 39.705 85.683 36.6394C85.683 33.5738 83.1977 31.0887 80.1319 31.0887C77.0662 31.0887 74.5809 33.5738 74.5809 36.6394C74.5809 39.705 77.0662 42.1902 80.1319 42.1902Z" fill="#FFB8B8"/>
<path d="M88.511 75.1712H71.7757L71.7958 75.041C71.8259 74.8463 74.7784 55.5059 72.6008 49.1787C72.3823 48.5569 72.4015 47.8762 72.6548 47.2678C72.908 46.6593 73.3774 46.166 73.9726 45.8828C77.0851 44.4172 83.0599 42.6124 88.1027 46.9923C88.8448 47.6474 89.4243 48.4662 89.7953 49.3839C90.1664 50.3016 90.3189 51.293 90.2407 52.2797L88.511 75.1712Z" fill="#FF8E00"/>
<path d="M74.9899 58.3641L67.4554 56.8357L70.9871 48.467C71.1985 47.6565 71.7227 46.9628 72.4448 46.5382C73.1669 46.1137 74.028 45.9928 74.8391 46.2022C75.6502 46.4116 76.3451 46.9341 76.7714 47.6551C77.1978 48.3762 77.3207 49.2369 77.1133 50.0484L74.9899 58.3641Z" fill="#FF8E00"/>
<path d="M84.6396 61.2021L84.1867 50.8195C83.8432 48.8677 84.9606 47.0226 86.679 46.721C88.3979 46.4205 90.0763 47.7742 90.4213 49.7403L92.1238 59.4419L84.6396 61.2021Z" fill="#FF8E00"/>
<path d="M87.9542 73.9282C90.647 84.1833 90.9408 97.2217 90.2143 111.444L86.5981 110.992L80.0439 83.8721L76.4277 111.444L72.3595 111.218C71.1442 96.2953 69.9608 83.4845 71.9075 75.0582L87.9542 73.9282Z" fill="#2F2E41"/>
<path d="M83.7896 40.9292C82.754 42.0322 80.8308 41.4401 80.6959 39.9332C80.6853 39.8162 80.6861 39.6984 80.6982 39.5816C80.7678 38.9141 81.1535 38.3081 81.0611 37.6033C81.0402 37.4279 80.9748 37.2607 80.8712 37.1176C80.046 36.0126 78.1089 37.6119 77.3301 36.6116C76.8525 35.9982 77.4139 35.0325 77.0474 34.3469C76.5637 33.4421 75.1311 33.8885 74.2327 33.393C73.2331 32.8416 73.2929 31.3081 73.9509 30.3753C74.7534 29.2377 76.1603 28.6307 77.5497 28.5432C78.9392 28.4557 80.319 28.8313 81.6162 29.3368C83.09 29.9111 84.5515 30.7049 85.4585 32.0007C86.5615 33.5767 86.6676 35.6953 86.116 37.5381C85.7804 38.659 84.6352 40.0284 83.7896 40.9292Z" fill="#2F2E41"/>
<path d="M47.7886 92.7722H18.4074C18.0204 92.7743 17.6484 92.6228 17.373 92.351C17.0976 92.0792 16.9413 91.7093 16.9383 91.3224V25.7446C16.9413 25.3577 17.0976 24.9878 17.373 24.716C17.6484 24.4442 18.0204 24.2927 18.4074 24.2948H47.7886C48.1756 24.2927 48.5475 24.4442 48.8229 24.716C49.0983 24.9878 49.2547 25.3577 49.2577 25.7446V91.3224C49.2547 91.7093 49.0983 92.0792 48.8229 92.351C48.5475 92.6228 48.1756 92.7743 47.7886 92.7722Z" fill="white"/>
<path d="M49.2577 45.5137H16.9383V45.9657H49.2577V45.5137Z" fill="#C6C6C6"/>
<path d="M49.3707 71.3024H17.0513V71.7544H49.3707V71.3024Z" fill="#C6C6C6"/>
<path d="M27.5608 24.2948H27.1088V92.9983H27.5608V24.2948Z" fill="#C6C6C6"/>
<path d="M38.8612 24.2948H38.4092V92.9983H38.8612V24.2948Z" fill="#C6C6C6"/>
</g>
<defs>
<filter id="filter0_i_251_55" x="0.439514" y="0" width="91.7759" height="121.331" filterUnits="userSpaceOnUse" color-interpolation-filters="sRGB">
<feFlood flood-opacity="0" result="BackgroundImageFix"/>
<feBlend mode="normal" in="SourceGraphic" in2="BackgroundImageFix" result="shape"/>
<feColorMatrix in="SourceAlpha" type="matrix" values="0 0 0 0 0 0 0 0 0 0 0 0 0 0 0 0 0 0 127 0" result="hardAlpha"/>
<feOffset dy="4"/>
<feGaussianBlur stdDeviation="2"/>
<feComposite in2="hardAlpha" operator="arithmetic" k2="-1" k3="1"/>
<feColorMatrix type="matrix" values="0 0 0 0 0 0 0 0 0 0 0 0 0 0 0 0 0 0 0.25 0"/>
<feBlend mode="normal" in2="shape" result="effect1_innerShadow_251_55"/>
</filter>
</defs>
</svg>
