<svg width="158" height="40" viewBox="0 0 158 40" fill="none" xmlns="http://www.w3.org/2000/svg">
<g clip-path="url(#clip0_6_51)">
<mask id="mask0_6_51" style="mask-type:luminance" maskUnits="userSpaceOnUse" x="1" y="0" width="22" height="29">
<path d="M1.89062 0.416014H22.966V28.03H1.89062V0.416014Z" fill="white"/>
</mask>
<g mask="url(#mask0_6_51)">
<path d="M6.07342 27.9983C4.64968 27.9983 3.3145 27.9983 1.93069 27.9983C1.92201 27.793 1.90465 27.6087 1.90465 27.4243C1.90291 21.2487 1.89423 15.073 1.90639 8.89913C1.91507 4.61217 5.0577 1.02087 9.22647 0.492174C14.1036 -0.125218 18.4981 3.74609 18.5519 8.73913C18.5815 11.4261 18.5589 14.113 18.5589 16.8C18.5589 17.0087 18.5589 17.2157 18.5589 17.52C19.2847 17.52 19.9739 17.513 20.6632 17.5217C21.797 17.5374 22.62 18.153 22.8509 19.1409C23.1322 20.3443 22.3544 21.64 21.1407 21.6887C18.92 21.7791 16.6924 21.7148 14.3953 21.7148C14.3953 21.4643 14.3953 21.24 14.3953 21.0174C14.3953 17.0139 14.4075 13.0122 14.3919 9.01044C14.3797 6.30609 12.3153 4.4 9.74388 4.67826C7.71592 4.89913 6.10814 6.6887 6.10467 8.7513C6.09078 14.927 6.08384 21.1026 6.07342 27.2765C6.07342 27.5026 6.07342 27.727 6.07342 27.9983Z" fill="#FBFAFA"/>
</g>
<path d="M20.8091 23.687C18.519 23.7096 16.2289 23.7426 13.937 23.7722C13.9492 25.0591 13.9526 26.3478 13.9526 27.6365C13.9526 27.7739 13.9526 27.9113 13.9526 28.0487C14.5204 28.047 15.0882 28.0417 15.6559 28.0348C17.6561 28.007 19.6632 28.007 21.6512 27.8226C25.5995 27.4591 28.532 24.4383 29.0738 20.3339C29.5495 16.7287 27.2889 13.0435 23.7469 11.6713C22.759 11.2887 21.7398 11.0661 20.6164 11.1357V15.2783C20.8855 15.3061 21.0713 15.32 21.2571 15.3426C23.4569 15.6052 25.0595 17.5113 24.9432 19.7287C24.8303 21.9235 23.0003 23.6678 20.8091 23.687Z" fill="#FBFAFA"/>
<path d="M7.18465 26.3513C7.18465 26.9078 7.18465 27.4643 7.18292 28.0209C10.0599 28.0209 12.9352 28.0209 15.8087 28.0191C15.8087 27.8817 15.8069 27.7443 15.8069 27.607C15.8069 26.3183 15.8538 25.0313 16.0188 23.7426C13.0723 23.7461 10.1259 23.7478 7.17944 23.7513C7.18465 24.6174 7.18465 25.4852 7.18465 26.3513Z" fill="#FBFAFA"/>
<path d="M36.4615 25.7426V20.8278C36.4615 19.8783 36.5692 19.0591 36.7897 18.3704C37.0067 17.68 37.3661 17.0261 37.8644 16.407C38.4565 15.6696 39.191 15.0974 40.066 14.6922C40.9394 14.2817 41.8509 14.0765 42.8041 14.0765C43.9188 14.0765 44.9762 14.3548 45.9763 14.9096C46.9816 15.4591 47.782 16.2104 48.381 17.1617C48.6571 17.6087 48.8689 18.1583 49.0165 18.8052C49.1641 19.4557 49.2404 20.167 49.2404 20.9426V26.1774C49.2214 26.84 49.0338 27.3652 48.6762 27.7513C48.3185 28.1391 47.8514 28.3339 47.275 28.3339C46.6795 28.3339 46.2002 28.1357 45.8322 27.7391C45.4658 27.3391 45.2818 26.8174 45.2818 26.1774V21.2957C45.2818 20.7113 45.2627 20.2939 45.2227 20.0417C45.1845 19.7896 45.1133 19.5391 45.0126 19.2852C44.8338 18.8991 44.5421 18.5791 44.1358 18.3252C43.7295 18.0748 43.2972 17.9478 42.8371 17.9478C42.1426 17.9478 41.5662 18.1913 41.1078 18.6783C40.6529 19.1617 40.4254 19.7513 40.4254 20.4504V26.1774C40.4029 26.84 40.2136 27.3652 39.8559 27.7513C39.5017 28.1391 39.026 28.3339 38.427 28.3339C37.8506 28.3339 37.3783 28.1357 37.0119 27.7391C36.6456 27.3391 36.4615 26.8174 36.4615 26.1774V25.7426Z" fill="white"/>
<path d="M52.7876 25.7426V16.3165C52.8032 15.6609 52.9925 15.1374 53.3502 14.7496C53.7078 14.3617 54.1766 14.167 54.7531 14.167C55.3469 14.167 55.8278 14.3652 56.1942 14.7617C56.5623 15.1583 56.7463 15.6765 56.7463 16.3165V26.1774C56.7272 26.84 56.5397 27.3652 56.182 27.7513C55.8226 28.1391 55.3556 28.3339 54.7791 28.3339C54.1853 28.3339 53.7044 28.1357 53.338 27.7391C52.9717 27.3391 52.7876 26.8174 52.7876 26.1774V25.7426ZM54.7531 8.69565C55.4094 8.69565 55.9615 8.92 56.4181 9.36696C56.8765 9.81217 57.1057 10.353 57.1057 10.993C57.1057 11.633 56.8713 12.1809 56.4043 12.6365C55.9355 13.0957 55.366 13.3217 54.694 13.3217C54.3746 13.3217 54.0725 13.2609 53.7842 13.1357C53.4943 13.0087 53.2408 12.8452 53.0237 12.6435C52.8032 12.4383 52.6296 12.2 52.4994 11.927C52.3709 11.6557 52.3084 11.3617 52.3084 11.0504C52.3084 10.3722 52.5411 9.81217 53.0099 9.36696C53.4769 8.92 54.0586 8.69565 54.7531 8.69565Z" fill="white"/>
<path d="M60.1737 25.7426V19.9252C60.1737 19.1322 60.3369 18.3826 60.6651 17.673C60.9915 16.967 61.4325 16.3461 61.9881 15.8104C62.5472 15.2783 63.1965 14.8557 63.9414 14.5443C64.688 14.233 65.478 14.0765 66.3131 14.0765C67.7577 14.0765 69.1675 14.6017 70.5409 15.6504C71.7928 14.6017 73.1748 14.0765 74.6819 14.0765C75.5362 14.0765 76.3366 14.2365 77.0797 14.5565C77.8228 14.8765 78.4774 15.3148 79.0469 15.8696C79.6129 16.4191 80.0626 17.0678 80.389 17.8139C80.7172 18.5617 80.8804 19.353 80.8804 20.1878V26.1774C80.8578 26.84 80.672 27.3652 80.3248 27.7513C79.9775 28.1391 79.5087 28.3339 78.9149 28.3339C78.3159 28.3339 77.8332 28.1357 77.4669 27.7391C77.1005 27.3391 76.9165 26.8174 76.9165 26.1774V20.9183C76.9165 20.4104 76.8991 20.0383 76.8696 19.7983C76.8401 19.5548 76.7759 19.327 76.6804 19.113C76.5189 18.7426 76.2584 18.4452 75.9008 18.2243C75.5466 18.0035 75.1507 17.8904 74.7149 17.8904C74.3156 17.8904 73.9544 17.9843 73.6263 18.1652C73.2999 18.3496 73.0533 18.6052 72.8936 18.9339C72.7512 19.207 72.6592 19.4817 72.6106 19.753C72.5619 20.0209 72.5394 20.4104 72.5394 20.9183V26.1774C72.5394 26.84 72.3588 27.3652 72.0011 27.7513C71.6435 28.1391 71.166 28.3339 70.5722 28.3339C69.9732 28.3339 69.4922 28.1357 69.1241 27.7391C68.7578 27.3391 68.5737 26.8174 68.5737 26.1774V20.9183C68.5737 20.2191 68.5147 19.6748 68.3967 19.2852C68.2786 18.8609 68.0303 18.5113 67.6501 18.2435C67.2733 17.9704 66.8479 17.833 66.3722 17.833C65.8739 17.833 65.4415 17.9652 65.0752 18.2243C64.7071 18.4852 64.4536 18.8383 64.3147 19.2852C64.2366 19.5009 64.1845 19.72 64.1636 19.9443C64.1463 20.167 64.1376 20.4922 64.1376 20.9183V26.1774C64.115 26.84 63.924 27.3652 63.5681 27.7513C63.2139 28.1391 62.7364 28.3339 62.1392 28.3339C61.5627 28.3339 61.0904 28.1357 60.7241 27.7391C60.356 27.3391 60.1737 26.8174 60.1737 26.1774V25.7426Z" fill="white"/>
<path d="M84.3633 11.313V10.8783C84.3807 10.2226 84.5682 9.69913 84.9276 9.30956C85.2853 8.92348 85.761 8.72696 86.3566 8.72696C86.933 8.72696 87.4035 8.92522 87.7716 9.32348C88.138 9.72 88.322 10.2383 88.322 10.8783V15.4139C88.9384 14.9513 89.5565 14.6122 90.1833 14.3965C90.8118 14.1843 91.5133 14.0765 92.2859 14.0765C93.26 14.0765 94.1576 14.2626 94.9806 14.633C95.8053 15.0017 96.5189 15.5043 97.1231 16.1443C97.7291 16.7843 98.2048 17.5426 98.5503 18.4157C98.8993 19.2852 99.0747 20.2261 99.0747 21.2383C99.0747 22.2661 98.8993 23.2209 98.5503 24.1043C98.2048 24.9843 97.7291 25.7426 97.1231 26.3826C96.5189 27.0226 95.7949 27.5217 94.9528 27.88C94.109 28.2383 93.1905 28.4174 92.1939 28.4174C91.3587 28.4174 90.6347 28.3043 90.0184 28.0835C89.4072 27.8643 88.7821 27.4817 88.1449 26.9391C87.8254 27.8696 87.2004 28.3339 86.2715 28.3339C85.9121 28.3339 85.5891 28.2609 85.3009 28.1165C85.0127 27.9722 84.7974 27.7635 84.6585 27.4887C84.5404 27.2765 84.4623 27.0591 84.4224 26.8365C84.3842 26.6104 84.3633 26.2661 84.3633 25.8V11.313ZM91.5723 17.9739C91.1139 17.9739 90.6816 18.0626 90.2753 18.2365C89.869 18.4122 89.5166 18.6452 89.2197 18.9409C88.921 19.2313 88.6832 19.5739 88.5061 19.9704C88.3255 20.367 88.2369 20.7896 88.2369 21.2383C88.2369 21.7026 88.3255 22.1339 88.5061 22.5304C88.6832 22.927 88.921 23.2713 89.2197 23.56C89.5166 23.8522 89.869 24.0835 90.2753 24.2574C90.6816 24.433 91.1139 24.52 91.5723 24.52C92.048 24.52 92.4891 24.433 92.8953 24.2574C93.3016 24.0835 93.6524 23.847 93.951 23.5478C94.2531 23.2504 94.491 22.9009 94.6715 22.5043C94.8504 22.1043 94.9407 21.6713 94.9407 21.2052C94.9407 20.7583 94.8504 20.3409 94.6715 19.9583C94.491 19.5704 94.2479 19.2313 93.9371 18.9409C93.6315 18.6452 93.2721 18.4122 92.8624 18.2365C92.4561 18.0626 92.0255 17.9739 91.5723 17.9739Z" fill="white"/>
<path d="M101.67 25.7426V16.9878C101.67 16.6991 101.674 16.4626 101.684 16.2783C101.691 16.0904 101.7 15.9357 101.71 15.8104C101.723 15.6835 101.75 15.5722 101.788 15.4783C101.828 15.3809 101.877 15.2835 101.94 15.1843C102.335 14.5061 102.903 14.167 103.636 14.167C104.45 14.167 105.054 14.5443 105.452 15.2991C106.403 14.4852 107.426 14.0765 108.518 14.0765C108.876 14.0765 109.209 14.1409 109.515 14.2696C109.824 14.393 110.093 14.5617 110.32 14.7739C110.551 14.9896 110.735 15.2417 110.871 15.5357C111.01 15.8278 111.081 16.1357 111.081 16.4643C111.081 17.1043 110.847 17.647 110.38 18.0957C109.916 18.5409 109.357 18.7617 108.702 18.7617C108.423 18.7617 108.207 18.7339 108.06 18.6783C107.911 18.6191 107.647 18.4835 107.266 18.2678C106.969 18.0939 106.713 18.0052 106.494 18.0052C106.174 18.0052 105.95 18.1443 105.818 18.4157C105.692 18.6835 105.629 19.1391 105.629 19.7791V26.1774C105.61 26.84 105.428 27.3652 105.079 27.7513C104.733 28.1391 104.261 28.3339 103.664 28.3339C103.068 28.3339 102.589 28.1357 102.221 27.7391C101.854 27.3391 101.67 26.8174 101.67 26.1774V25.7426Z" fill="white"/>
<path d="M121.599 21.32V16.3165C121.617 15.6609 121.804 15.1374 122.163 14.7496C122.521 14.3617 122.997 14.167 123.592 14.167C124.169 14.167 124.641 14.3652 125.007 14.7617C125.374 15.1583 125.558 15.6765 125.558 16.3165V21.64C125.558 22.593 125.449 23.4174 125.23 24.1165C125.011 24.8122 124.655 25.4609 124.162 26.0626C123.563 26.8017 122.827 27.3791 121.953 27.7965C121.078 28.2087 120.167 28.4174 119.215 28.4174C118.101 28.4174 117.04 28.1426 116.036 27.5913C115.036 27.0383 114.237 26.287 113.644 25.3391C113.364 24.8904 113.151 24.3391 113.003 23.6817C112.854 23.0209 112.779 22.313 112.779 21.5583V16.3165C112.802 15.6609 112.984 15.1374 113.329 14.7496C113.678 14.3617 114.151 14.167 114.746 14.167C115.343 14.167 115.826 14.3652 116.194 14.7617C116.561 15.1583 116.745 15.6765 116.745 16.3165V21.2052C116.745 21.7861 116.764 22.2035 116.804 22.4591C116.842 22.713 116.911 22.953 117.012 23.1826C117.191 23.5722 117.484 23.8974 117.891 24.1617C118.297 24.4226 118.729 24.5513 119.188 24.5513C119.884 24.5513 120.457 24.313 120.912 23.8296C121.37 23.3426 121.599 22.7513 121.599 22.0504V21.32Z" fill="white"/>
<path d="M128.954 25.7426V20.8278C128.954 19.8783 129.063 19.0591 129.282 18.3704C129.501 17.68 129.859 17.0261 130.357 16.407C130.951 15.6696 131.683 15.0974 132.559 14.6922C133.432 14.2817 134.345 14.0765 135.298 14.0765C136.411 14.0765 137.469 14.3548 138.47 14.9096C139.474 15.4591 140.274 16.2104 140.875 17.1617C141.15 17.6087 141.361 18.1583 141.511 18.8052C141.658 19.4557 141.733 20.167 141.733 20.9426V26.1774C141.716 26.84 141.526 27.3652 141.17 27.7513C140.811 28.1391 140.344 28.3339 139.767 28.3339C139.172 28.3339 138.693 28.1357 138.326 27.7391C137.958 27.3391 137.774 26.8174 137.774 26.1774V21.2957C137.774 20.7113 137.755 20.2939 137.715 20.0417C137.677 19.7896 137.606 19.5391 137.507 19.2852C137.326 18.8991 137.035 18.5791 136.628 18.3252C136.222 18.0748 135.79 17.9478 135.331 17.9478C134.637 17.9478 134.059 18.1913 133.6 18.6783C133.145 19.1617 132.92 19.7513 132.92 20.4504V26.1774C132.897 26.84 132.706 27.3652 132.348 27.7513C131.996 28.1391 131.518 28.3339 130.921 28.3339C130.343 28.3339 129.873 28.1357 129.504 27.7391C129.138 27.3391 128.954 26.8174 128.954 26.1774V25.7426Z" fill="white"/>
<path d="M158 26.0365C158 27.1043 157.905 28 157.719 28.7235C157.53 29.4539 157.227 30.0696 156.807 30.5739C156.153 31.367 155.328 31.9757 154.337 32.4035C153.343 32.8296 152.253 33.0435 151.06 33.0435C150.263 33.0435 149.51 32.9548 148.793 32.7809C148.081 32.6052 147.45 32.3617 146.905 32.0522C146.358 31.7444 145.926 31.3861 145.608 30.9774C145.289 30.5704 145.129 30.1444 145.129 29.6974C145.129 29.1757 145.313 28.7304 145.68 28.36C146.048 27.993 146.499 27.8087 147.037 27.8087C147.332 27.8087 147.6 27.8591 147.836 27.9565C148.076 28.0504 148.414 28.2522 148.852 28.5635C149.31 28.8748 149.708 29.0922 150.044 29.2174C150.38 29.3443 150.779 29.4087 151.237 29.4087C152.131 29.4087 152.822 29.1357 153.309 28.5896C153.793 28.0487 154.036 27.2748 154.036 26.2678V26.0365C153.461 26.4435 152.897 26.7391 152.338 26.927C151.782 27.1096 151.159 27.2017 150.465 27.2017C149.567 27.2017 148.742 27.0383 147.987 26.7078C147.235 26.3757 146.579 25.92 146.022 25.3391C145.466 24.7548 145.028 24.0713 144.711 23.2852C144.396 22.5009 144.238 21.6522 144.238 20.7391C144.238 19.8087 144.396 18.9374 144.711 18.1217C145.028 17.3078 145.461 16.5983 146.008 15.9965C146.553 15.3948 147.204 14.927 147.961 14.5896C148.716 14.2487 149.531 14.0765 150.406 14.0765C151.161 14.0765 151.831 14.1757 152.416 14.3722C153.001 14.5635 153.632 14.9026 154.304 15.3896C154.465 15.0017 154.699 14.7009 155.005 14.487C155.314 14.273 155.668 14.167 156.068 14.167C156.363 14.167 156.651 14.2348 156.925 14.3722C157.203 14.5096 157.434 14.7026 157.613 14.953C157.771 15.1687 157.872 15.3809 157.922 15.593C157.974 15.8087 158 16.1165 158 16.5217V26.0365ZM151.296 17.8017C150.899 17.8017 150.525 17.8748 150.176 18.0191C149.829 18.1652 149.522 18.3652 149.251 18.6209C148.985 18.873 148.777 19.1739 148.629 19.5217C148.48 19.8678 148.405 20.2365 148.405 20.6226C148.405 21.4383 148.683 22.1183 149.239 22.6643C149.798 23.207 150.484 23.4765 151.296 23.4765C152.112 23.4765 152.798 23.207 153.354 22.6643C153.908 22.1183 154.185 21.4487 154.185 20.6557C154.185 19.8591 153.908 19.1826 153.354 18.633C152.798 18.08 152.112 17.8017 151.296 17.8017Z" fill="white"/>
</g>
<defs>
<clipPath id="clip0_6_51">
<rect width="158" height="40" fill="white"/>
</clipPath>
</defs>
</svg>
