<svg width="102" height="128" viewBox="0 0 102 128" fill="none" xmlns="http://www.w3.org/2000/svg">
<path d="M64.0761 30.3104H63.3783V11.1119C63.3783 8.16495 62.2127 5.33867 60.1379 3.2548C58.0631 1.17092 55.2491 0.000140947 52.3148 0H11.8136C8.87927 0 6.0651 1.17072 3.9902 3.25461C1.9153 5.3385 0.749634 8.16486 0.749634 11.1119V116.438C0.749634 117.897 1.03581 119.342 1.59183 120.69C2.14785 122.039 2.96282 123.264 3.9902 124.295C5.01759 125.327 6.23727 126.146 7.57962 126.704C8.92196 127.263 10.3607 127.55 11.8136 127.55H52.3148C55.2491 127.55 58.0632 126.379 60.1381 124.295C62.2129 122.212 63.3786 119.385 63.3786 116.438V43.9761H64.0764L64.0761 30.3104Z" fill="#E6E6E6"/>
<path d="M52.7608 2.88989H47.4746C47.7176 3.48855 47.8104 4.13806 47.7447 4.78121C47.679 5.42436 47.4568 6.04141 47.0977 6.57799C46.7386 7.11457 46.2536 7.55423 45.6854 7.85822C45.1173 8.16222 44.4834 8.32122 43.8397 8.32123H20.6373C19.9936 8.32125 19.3597 8.16225 18.7915 7.85825C18.2234 7.55424 17.7384 7.11456 17.3793 6.57794C17.0202 6.04133 16.798 5.42425 16.7324 4.78107C16.6667 4.1379 16.7595 3.48837 17.0027 2.88972H12.0652C9.87383 2.88972 7.7722 3.76401 6.22267 5.32026C4.67313 6.87651 3.80261 8.98723 3.80261 11.1881V116.361C3.80261 118.562 4.67313 120.673 6.22267 122.229C7.7722 123.785 9.87383 124.66 12.0652 124.66H52.7608C54.9521 124.66 57.0538 123.785 58.6033 122.229C60.1528 120.673 61.0233 118.562 61.0233 116.361V11.1879C61.0233 8.98711 60.1528 6.87646 58.6033 5.32026C57.0538 3.76405 54.9522 2.88976 52.7609 2.88972L52.7608 2.88989Z" fill="white"/>
<path d="M27.2272 44.7854C27.2271 44.0501 27.4199 43.3278 27.7861 42.6911C28.1524 42.0544 28.6791 41.5259 29.3134 41.1587C28.6796 40.7911 27.9606 40.5976 27.2287 40.5975C26.4968 40.5975 25.7778 40.791 25.144 41.1585C24.5101 41.526 23.9838 42.0546 23.6178 42.6912C23.2519 43.3277 23.0592 44.0499 23.0592 44.7849C23.0592 45.52 23.2519 46.2421 23.6178 46.8787C23.9838 47.5152 24.5101 48.0438 25.144 48.4113C25.7778 48.7789 26.4968 48.9723 27.2287 48.9723C27.9606 48.9722 28.6796 48.7787 29.3134 48.4112C28.6793 48.044 28.1527 47.5156 27.7866 46.8791C27.4205 46.2426 27.2278 45.5204 27.2279 44.7854H27.2272Z" fill="#CCCCCC"/>
<path d="M32.4685 44.7854C32.4683 44.0501 32.6611 43.3277 33.0273 42.6911C33.3936 42.0544 33.9203 41.5259 34.5546 41.1587C33.9208 40.7911 33.2018 40.5976 32.4699 40.5975C31.738 40.5975 31.019 40.791 30.3852 41.1585C29.7513 41.526 29.225 42.0546 28.859 42.6912C28.4931 43.3277 28.3004 44.0499 28.3004 44.7849C28.3004 45.52 28.4931 46.2421 28.859 46.8787C29.225 47.5152 29.7513 48.0438 30.3852 48.4113C31.019 48.7789 31.738 48.9723 32.4699 48.9723C33.2018 48.9722 33.9208 48.7787 34.5546 48.4112C33.9205 48.044 33.3939 47.5156 33.0278 46.8791C32.6617 46.2426 32.469 45.5204 32.4692 44.7854H32.4685Z" fill="#CCCCCC"/>
<path d="M37.5909 48.9727C39.8936 48.9727 41.7602 47.098 41.7602 44.7854C41.7602 42.4727 39.8936 40.598 37.5909 40.598C35.2883 40.598 33.4216 42.4727 33.4216 44.7854C33.4216 47.098 35.2883 48.9727 37.5909 48.9727Z" fill="#F59E0B"/>
<path d="M44.5588 57.8642H20.259C20.0276 57.8639 19.8058 57.7715 19.6422 57.6072C19.4787 57.4429 19.3866 57.2202 19.3864 56.9878V32.5829C19.3868 32.3507 19.4789 32.1281 19.6425 31.964C19.8061 31.7998 20.0277 31.7075 20.259 31.7072H44.5588C44.7902 31.7075 45.0119 31.7999 45.1755 31.9642C45.3391 32.1285 45.4311 32.3512 45.4314 32.5836V56.987C45.4311 57.2193 45.3391 57.442 45.1755 57.6063C45.0119 57.7706 44.7902 57.8631 44.5588 57.8633V57.8642ZM20.259 32.0573C20.1201 32.0574 19.9871 32.1129 19.8889 32.2114C19.7908 32.31 19.7356 32.4437 19.7354 32.5831V56.988C19.7356 57.1274 19.7908 57.2611 19.8889 57.3597C19.9871 57.4582 20.1201 57.5137 20.259 57.5138H44.5588C44.6976 57.5137 44.8307 57.4582 44.9288 57.3597C45.027 57.2611 45.0822 57.1274 45.0823 56.988V32.5831C45.0822 32.4437 45.027 32.31 44.9288 32.2114C44.8307 32.1129 44.6976 32.0574 44.5588 32.0573H20.259Z" fill="#CCCCCC"/>
<path d="M49.9846 76.5716H12.7164V76.9221H49.9846V76.5716Z" fill="#CCCCCC"/>
<path d="M13.8933 74.3827C14.5433 74.3827 15.0702 73.8535 15.0702 73.2007C15.0702 72.5479 14.5433 72.0187 13.8933 72.0187C13.2433 72.0187 12.7164 72.5479 12.7164 73.2007C12.7164 73.8535 13.2433 74.3827 13.8933 74.3827Z" fill="#F59E0B"/>
<path d="M49.9846 88.3914H12.7164V88.742H49.9846V88.3914Z" fill="#CCCCCC"/>
<path d="M13.8933 86.2027C14.5433 86.2027 15.0702 85.6735 15.0702 85.0207C15.0702 84.3679 14.5433 83.8387 13.8933 83.8387C13.2433 83.8387 12.7164 84.3679 12.7164 85.0207C12.7164 85.6735 13.2433 86.2027 13.8933 86.2027Z" fill="#F59E0B"/>
<path d="M49.3025 101.851H37.5246C37.3212 101.851 37.1262 101.77 36.9823 101.625C36.8385 101.481 36.7576 101.285 36.7573 101.081V96.9353C36.7576 96.731 36.8385 96.5351 36.9823 96.3907C37.1262 96.2462 37.3212 96.1649 37.5246 96.1647H49.3025C49.5059 96.1649 49.7009 96.2462 49.8448 96.3907C49.9886 96.5351 50.0695 96.731 50.0697 96.9353V101.081C50.0695 101.285 49.9886 101.481 49.8448 101.625C49.7009 101.77 49.5059 101.851 49.3025 101.851Z" fill="#F59E0B"/>
<path d="M17.7324 74.3827C18.3824 74.3827 18.9093 73.8535 18.9093 73.2007C18.9093 72.5479 18.3824 72.0187 17.7324 72.0187C17.0824 72.0187 16.5555 72.5479 16.5555 73.2007C16.5555 73.8535 17.0824 74.3827 17.7324 74.3827Z" fill="#F59E0B"/>
<path d="M21.5715 74.3827C22.2215 74.3827 22.7484 73.8535 22.7484 73.2007C22.7484 72.5479 22.2215 72.0187 21.5715 72.0187C20.9216 72.0187 20.3947 72.5479 20.3947 73.2007C20.3947 73.8535 20.9216 74.3827 21.5715 74.3827Z" fill="#F59E0B"/>
<path d="M17.7324 86.2027C18.3824 86.2027 18.9093 85.6735 18.9093 85.0207C18.9093 84.3679 18.3824 83.8387 17.7324 83.8387C17.0824 83.8387 16.5555 84.3679 16.5555 85.0207C16.5555 85.6735 17.0824 86.2027 17.7324 86.2027Z" fill="#F59E0B"/>
<path d="M21.5715 86.2027C22.2215 86.2027 22.7484 85.6735 22.7484 85.0207C22.7484 84.3679 22.2215 83.8387 21.5715 83.8387C20.9216 83.8387 20.3947 84.3679 20.3947 85.0207C20.3947 85.6735 20.9216 86.2027 21.5715 86.2027Z" fill="#F59E0B"/>
<path d="M87.7118 55.4948L83.205 64.4551L69.7324 70.6071C68.2934 73.0494 63.7209 73.2364 63.3882 71.6579C63.0151 69.8861 68.9413 67.0343 68.9413 67.0343L80.2115 59.3783L81.1976 52.7874L87.7118 55.4948Z" fill="#FFB9B9"/>
<path d="M87.1803 115.624L88.0113 122.302L83.1909 122.636L82.6925 115.625L87.1803 115.624Z" fill="#FFB9B9"/>
<path d="M86.5156 121.3C86.9465 120.842 87.344 120.354 87.705 119.839C88.3958 118.879 89.0088 123.804 89.0088 123.804C89.0088 123.804 89.6738 125.807 89.5075 126.809C89.3412 127.811 85.5184 127.811 84.8534 127.644C84.1884 127.478 80.8644 127.644 80.8644 127.644H75.8779C71.5562 125.641 75.8779 124.305 75.8779 124.305C77.2077 124.138 81.6954 119.965 81.6954 119.965L82.6928 118.129C83.3576 117.962 84.0226 120.466 84.0226 120.466L86.5156 121.3Z" fill="#090814"/>
<path d="M99.6468 115.708L100.478 122.385L95.658 122.719L95.1593 115.708H99.6468Z" fill="#FFB9B9"/>
<path d="M98.9814 121.384C99.4123 120.926 99.8098 120.438 100.171 119.923C100.862 118.963 101.475 123.888 101.475 123.888C101.475 123.888 102.139 125.724 101.973 126.725C101.807 127.727 97.9843 127.727 97.3192 127.561C96.6542 127.394 93.3302 127.728 93.3302 127.728H88.3437C84.022 125.725 88.3437 124.389 88.3437 124.389C89.6735 124.222 94.1613 120.049 94.1613 120.049L95.1587 118.212C95.8234 118.045 96.4884 120.549 96.4884 120.549L98.9814 121.384Z" fill="#090814"/>
<path d="M94.1608 72.6385C94.8258 73.4737 94.4932 76.311 94.4932 76.311C94.4932 76.311 95.6566 85.4925 95.1579 86.3271C94.6592 87.1618 95.4903 87.8294 95.9895 88.9982C96.4887 90.167 96.9869 93.0045 96.9869 93.0045C99.8125 95.3415 99.6465 106.026 99.6465 106.026L100.644 115.541C100.311 116.543 95.6571 116.709 94.9924 116.543C94.3276 116.376 92.3328 101.351 92.3328 101.351L87.8451 92.8375C87.8451 92.8375 88.1775 115.541 88.1775 116.542C88.1775 117.544 83.6897 117.043 82.6923 117.043C81.6949 117.043 81.6949 100.35 81.6949 100.35L80.6975 96.0094L75.3787 76.1443V73.8065L76.2103 72.638C76.2103 72.638 93.496 71.8038 94.1608 72.6385Z" fill="#090814"/>
<path d="M86.8483 34.7445C89.6941 34.7445 92.0011 32.4276 92.0011 29.5694C92.0011 26.7113 89.6941 24.3943 86.8483 24.3943C84.0025 24.3943 81.6956 26.7113 81.6956 29.5694C81.6956 32.4276 84.0025 34.7445 86.8483 34.7445Z" fill="#FFB9B9"/>
<path d="M84.272 31.9897C85.3163 34.3256 84.698 37.588 82.6088 41.1711L91.0859 37.1648L89.7561 35.9963L90.0885 32.6576L84.272 31.9897Z" fill="#FFB9B9"/>
<path d="M84.2712 37.3318C83.1612 37.9946 82.4972 39.2124 82.116 40.4518C81.4103 42.746 80.9854 45.1181 80.8509 47.5155L80.4485 54.693L75.462 73.7238C79.7835 77.3963 82.2759 76.5616 88.0942 73.5567C93.9126 70.5519 94.5768 74.559 94.5768 74.559C94.5768 74.559 95.0755 74.392 94.5768 73.8914C94.0781 73.3908 94.5768 73.8914 95.0755 73.3905C95.5742 72.8896 95.0755 73.3905 94.9092 72.8896C94.7428 72.3888 94.9092 72.7226 95.0755 72.5558C95.2418 72.3891 94.4107 70.8854 94.4107 70.8854L95.7405 58.3653L97.4037 40.6703C95.4092 38.1662 89.7583 35.996 89.7583 35.996L84.6039 39.6686C82.9406 40.3362 84.2715 37.6654 84.2715 37.6654L84.2712 37.3318Z" fill="#FF8E00"/>
<path d="M100.145 51.2707L100.81 61.2869L92.3325 73.4732C92.3325 76.311 90.8367 76.9789 90.8367 76.9789C90.2701 76.0707 89.7702 75.1223 89.3409 74.1411C88.5092 72.3047 89.8396 70.8024 89.8396 70.8024L95.6571 58.4493L93.1639 52.2727L100.145 51.2707Z" fill="#FFB9B9"/>
<path d="M97.3205 40.754C100.146 41.7558 100.645 52.6066 100.645 52.6066C97.3205 50.7702 93.3314 53.7751 93.3314 53.7751C93.3314 53.7751 92.4998 50.9372 91.503 47.2647C91.2018 46.2316 91.1658 45.1388 91.3983 44.088C91.6309 43.0373 92.1243 42.0626 92.8327 41.2549C92.8327 41.2549 94.4938 39.7526 97.3205 40.754Z" fill="#FF8E00"/>
<path d="M91.5848 31.155C90.9289 30.628 90.034 31.5861 90.034 31.5861L89.5092 26.8426C89.5092 26.8426 86.2295 27.2378 84.1303 26.7109C82.0312 26.1839 81.7034 28.6213 81.7034 28.6213C81.5952 27.6373 81.5732 26.6456 81.6376 25.6577C81.7688 24.4722 83.4744 23.2867 86.4918 22.4954C89.5093 21.7041 91.0834 25.1307 91.0834 25.1307C93.1815 26.1839 92.2407 31.6823 91.5848 31.155Z" fill="#090814"/>
</svg>
