<svg width="87" height="118" viewBox="0 0 87 118" fill="none" xmlns="http://www.w3.org/2000/svg">
<path d="M74.3648 78.0601H4.22381C3.10398 78.0588 2.03038 77.6112 1.23854 76.8156C0.446699 76.0199 0.00128728 74.9411 0 73.8158V23.1409C0.00126564 22.0157 0.446679 20.9368 1.23852 20.1411C2.03037 19.3455 3.10397 18.8979 4.22381 18.8966H74.3648C75.4846 18.8979 76.5582 19.3455 77.35 20.1412C78.1419 20.9369 78.5873 22.0157 78.5886 23.1409V73.8158C78.5873 74.9411 78.1419 76.0199 77.35 76.8155C76.5582 77.6112 75.4846 78.0588 74.3648 78.0601Z" fill="#E6E6E6"/>
<path d="M5.52044 74.6768H73.0683C73.6114 74.6768 74.1323 74.46 74.5164 74.0741C74.9004 73.6882 75.1162 73.1647 75.1162 72.619V24.3379C75.1162 23.7922 74.9004 23.2687 74.5164 22.8828C74.1323 22.4969 73.6114 22.2801 73.0683 22.2801H5.52044C4.9773 22.2801 4.45641 22.4969 4.07235 22.8828C3.68829 23.2687 3.47253 23.7922 3.47253 24.3379V72.619C3.47253 73.1647 3.68829 73.6882 4.07235 74.0741C4.45641 74.46 4.9773 74.6768 5.52044 74.6768Z" fill="white"/>
<path d="M65.0168 37.2819H21.8697C21.6674 37.2819 21.467 37.322 21.28 37.3998C21.093 37.4776 20.9232 37.5917 20.7801 37.7355C20.637 37.8792 20.5235 38.0499 20.446 38.2378C20.3686 38.4257 20.3287 38.627 20.3287 38.8304C20.3287 39.0337 20.3686 39.2351 20.446 39.4229C20.5235 39.6108 20.637 39.7815 20.7801 39.9253C20.9232 40.0691 21.093 40.1831 21.28 40.261C21.467 40.3388 21.6674 40.3788 21.8697 40.3788H65.0168C65.4255 40.3788 65.8174 40.2157 66.1064 39.9253C66.3954 39.6349 66.5578 39.2411 66.5578 38.8304C66.5578 38.4197 66.3954 38.0258 66.1064 37.7355C65.8174 37.4451 65.4255 37.2819 65.0168 37.2819Z" fill="#E6E6E6"/>
<path d="M21.8697 46.8108C21.6674 46.8108 21.467 46.8509 21.28 46.9287C21.093 47.0065 20.9232 47.1206 20.7801 47.2644C20.637 47.4081 20.5235 47.5788 20.446 47.7667C20.3686 47.9546 20.3287 48.1559 20.3287 48.3593C20.3287 48.5626 20.3686 48.764 20.446 48.9518C20.5235 49.1397 20.637 49.3104 20.7801 49.4542C20.9232 49.598 21.093 49.712 21.28 49.7899C21.467 49.8677 21.6674 49.9077 21.8697 49.9077H65.0168C65.4255 49.9077 65.8174 49.7446 66.1064 49.4542C66.3954 49.1638 66.5578 48.7699 66.5578 48.3593C66.5578 47.9486 66.3954 47.5547 66.1064 47.2644C65.8174 46.974 65.4255 46.8108 65.0168 46.8108H21.8697Z" fill="#E6E6E6"/>
<path d="M21.8697 56.3398C21.461 56.3398 21.0691 56.5029 20.7801 56.7933C20.4911 57.0837 20.3287 57.4775 20.3287 57.8882C20.3287 58.2989 20.4911 58.6927 20.7801 58.9831C21.0691 59.2735 21.461 59.4367 21.8697 59.4367H65.0168C65.4255 59.4367 65.8174 59.2735 66.1064 58.9831C66.3954 58.6927 66.5578 58.2989 66.5578 57.8882C66.5578 57.4775 66.3954 57.0837 66.1064 56.7933C65.8174 56.5029 65.4255 56.3398 65.0168 56.3398H21.8697Z" fill="#E6E6E6"/>
<path d="M13.6905 40.8553C14.738 40.8553 15.5871 40.002 15.5871 38.9495C15.5871 37.897 14.738 37.0437 13.6905 37.0437C12.6431 37.0437 11.7939 37.897 11.7939 38.9495C11.7939 40.002 12.6431 40.8553 13.6905 40.8553Z" fill="#FF8E00"/>
<path d="M13.6905 50.3842C14.738 50.3842 15.5871 49.5309 15.5871 48.4784C15.5871 47.4259 14.738 46.5726 13.6905 46.5726C12.6431 46.5726 11.7939 47.4259 11.7939 48.4784C11.7939 49.5309 12.6431 50.3842 13.6905 50.3842Z" fill="#E6E6E6"/>
<path d="M13.6905 59.9131C14.738 59.9131 15.5871 59.0599 15.5871 58.0073C15.5871 56.9548 14.738 56.1015 13.6905 56.1015C12.6431 56.1015 11.7939 56.9548 11.7939 58.0073C11.7939 59.0599 12.6431 59.9131 13.6905 59.9131Z" fill="#E6E6E6"/>
<path d="M47.829 38.8304C47.829 39.0337 47.7891 39.2351 47.7117 39.423C47.6343 39.6108 47.5208 39.7815 47.3777 39.9253C47.2346 40.0691 47.0647 40.1831 46.8777 40.261C46.6908 40.3388 46.4904 40.3788 46.288 40.3788H21.9252C21.5445 40.3844 21.1747 40.2517 20.8838 40.0049C20.5928 39.7582 20.4005 39.4142 20.342 39.0362C20.3133 38.8174 20.3313 38.5951 20.3949 38.3839C20.4585 38.1727 20.5661 37.9776 20.7107 37.8116C20.8553 37.6456 21.0334 37.5125 21.2333 37.4211C21.4331 37.3298 21.6501 37.2823 21.8696 37.2819H46.288C46.6967 37.2819 47.0887 37.4451 47.3777 37.7355C47.6666 38.0258 47.829 38.4197 47.829 38.8304Z" fill="#FF8E00"/>
<path d="M39.2942 12.3876C42.6984 12.3876 45.4581 9.61456 45.4581 6.19381C45.4581 2.77306 42.6984 0 39.2942 0C35.89 0 33.1304 2.77306 33.1304 6.19381C33.1304 9.61456 35.89 12.3876 39.2942 12.3876Z" fill="#E6E6E6"/>
<path d="M42.3365 6.68979C42.6091 5.00151 41.4682 3.41079 39.788 3.13682C38.1079 2.86285 36.5249 4.00937 36.2522 5.69765C35.9796 7.38594 37.1206 8.97668 38.8007 9.25065C40.4808 9.52462 42.0638 8.37808 42.3365 6.68979Z" fill="white"/>
<path d="M62.5516 115.004L59.6251 115.003L58.2333 103.661L62.5526 103.661L62.5516 115.004Z" fill="#FFB8B8"/>
<path d="M57.5347 114.163H63.1787V117.734H53.9811C53.9811 117.265 54.073 116.801 54.2516 116.368C54.4302 115.934 54.6919 115.541 55.0219 115.209C55.3519 114.878 55.7436 114.615 56.1748 114.435C56.6059 114.256 57.068 114.163 57.5347 114.163Z" fill="#2F2E41"/>
<path d="M78.3263 115.004L75.3996 115.003L74.0081 103.661L78.3273 103.661L78.3263 115.004Z" fill="#FFB8B8"/>
<path d="M73.3092 114.163H78.9532V117.734H69.7556C69.7556 117.265 69.8475 116.801 70.0261 116.368C70.2047 115.934 70.4665 115.541 70.7964 115.209C71.1264 114.878 71.5182 114.615 71.9493 114.435C72.3805 114.256 72.8426 114.163 73.3092 114.163Z" fill="#2F2E41"/>
<path d="M69.7554 34.368C73.2278 34.368 76.0427 31.5394 76.0427 28.0502C76.0427 24.5609 73.2278 21.7323 69.7554 21.7323C66.283 21.7323 63.468 24.5609 63.468 28.0502C63.468 31.5394 66.283 34.368 69.7554 34.368Z" fill="#FFB8B8"/>
<path d="M48.2567 69.253C48.3006 68.9031 48.4203 68.5672 48.6074 68.2689C48.7945 67.9705 49.0444 67.7171 49.3395 67.5263C49.6346 67.3355 49.9678 67.212 50.3155 67.1646C50.6633 67.1172 51.0171 67.147 51.3522 67.2519L54.8659 63.0193L57.9464 64.5376L52.9008 70.4449C52.6881 70.9988 52.2807 71.455 51.7556 71.7272C51.2305 71.9994 50.6243 72.0686 50.0519 71.9217C49.4795 71.7748 48.9805 71.422 48.6497 70.9301C48.3188 70.4382 48.179 69.8415 48.2567 69.253Z" fill="#FFB8B8"/>
<path d="M78.4975 73.5339C78.3478 73.215 78.2695 72.867 78.2681 72.5144C78.2667 72.1617 78.3422 71.8131 78.4894 71.493C78.6366 71.1729 78.8519 70.8891 79.12 70.6616C79.3882 70.4341 79.7027 70.2685 80.0414 70.1764L80.7469 64.7102L84.1572 64.3308L83.053 72.0361C83.1693 72.6182 83.0691 73.2229 82.7713 73.7357C82.4735 74.2484 81.9989 74.6336 81.4374 74.8183C80.8758 75.0029 80.2664 74.9741 79.7246 74.7374C79.1828 74.5007 78.7462 74.0725 78.4975 73.5339Z" fill="#FFB8B8"/>
<path d="M75.0098 39.9832C75.3441 39.5519 75.7858 39.2167 76.2902 39.0117C76.7946 38.8066 77.344 38.7389 77.8827 38.8154C78.4215 38.8918 78.9307 39.1098 79.3589 39.4472C79.7871 39.7845 80.1192 40.2295 80.3216 40.737L85.475 53.6604C86.0016 54.9811 86.1695 56.4187 85.9615 57.826L84.2829 69.1849C84.2613 69.3315 84.2084 69.4716 84.1278 69.5957C84.0473 69.7199 83.9411 69.825 83.8163 69.9041C83.6916 69.9831 83.5514 70.0342 83.4052 70.0537C83.2591 70.0733 83.1104 70.0609 82.9695 70.0174L80.7579 69.335C80.5289 69.2643 80.3318 69.1152 80.2009 68.9136C80.07 68.7119 80.0136 68.4706 80.0416 68.2315C80.8221 61.5442 79.7905 54.7692 77.0557 48.6223L74.6263 43.1618C74.3972 42.6469 74.3119 42.079 74.3794 41.5191C74.447 40.9591 74.6649 40.4282 75.0098 39.9832Z" fill="#FF8E00"/>
<path d="M71.2862 34.3677C72.2325 34.3883 73.1723 34.2074 74.0441 33.8369C74.9158 33.4664 75.6997 32.9148 76.3441 32.2182C76.9885 31.5216 77.479 30.6959 77.7833 29.7953C78.0875 28.8947 78.1986 27.9396 78.1093 26.9927C78.0201 26.0459 77.7324 25.1287 77.2653 24.3016C76.7981 23.4744 76.1621 22.7559 75.3989 22.1934C74.6357 21.6308 73.7627 21.2369 72.8373 21.0375C71.9118 20.8382 70.9548 20.8378 70.0292 21.0366C68.6466 20.193 67.0391 19.6253 65.4279 19.7697C63.8167 19.9141 62.2234 20.8753 61.6209 22.3837C61.0184 23.8922 61.6656 25.8806 63.1637 26.4936C64.1242 26.8866 65.2087 26.696 66.2337 26.5375C67.2586 26.3791 68.3768 26.2756 69.2688 26.8071C70.1608 27.3385 70.5618 28.7634 69.7629 29.4278C69.3394 29.794 69.037 30.2811 68.896 30.8243C68.7549 31.3675 68.7819 31.941 68.9734 32.4684C69.3749 33.5118 70.4707 34.35 71.2862 34.3677Z" fill="#2F2E41"/>
<path d="M79.0869 69.0032L80.2022 111.534C80.2059 111.676 80.1804 111.817 80.1273 111.948C80.0742 112.079 79.9947 112.198 79.8937 112.297C79.7927 112.397 79.6724 112.474 79.5403 112.524C79.4083 112.574 79.2674 112.596 79.1264 112.589L75.4524 112.4C75.218 112.388 74.9948 112.296 74.8202 112.138C74.6456 111.98 74.5302 111.767 74.4934 111.534L70.1234 83.9103C70.1047 83.792 70.0455 83.6841 69.9562 83.605C69.8668 83.5259 69.7527 83.4805 69.6337 83.4768C69.5146 83.4731 69.398 83.5112 69.3039 83.5846C69.2098 83.658 69.1441 83.762 69.1181 83.8788L63.2028 110.476C63.1712 110.618 63.1099 110.752 63.023 110.868C62.9361 110.985 62.8255 111.082 62.6986 111.152C62.5717 111.222 62.4314 111.265 62.2869 111.277C62.1424 111.289 61.9971 111.27 61.8605 111.221L58.2142 110.997C58.0033 110.922 57.8227 110.779 57.7002 110.591C57.5777 110.402 57.52 110.179 57.5359 109.954L60.7189 68.6007L79.0869 69.0032Z" fill="#2F2E41"/>
<path d="M80.8767 48.8027C81.4919 42.3576 76.776 36.5281 70.3488 36.0695C67.5796 35.8719 63.2804 35.8013 61.8632 39.4486C57.594 50.436 65.0676 50.169 62.4927 59.6884C59.9177 69.2078 57.6435 69.7534 61.1766 70.4408C64.7097 71.1282 80.5976 75.1859 79.9452 68.4858C79.5442 64.3674 80.2631 55.2316 80.8767 48.8027Z" fill="#FF8E00"/>
<path d="M62.6192 38.3311C63.1267 38.1337 63.677 38.0744 64.2146 38.159C64.7521 38.2436 65.258 38.4692 65.6811 38.813C66.1041 39.1569 66.4295 39.6068 66.6242 40.1173C66.819 40.6279 66.8763 41.181 66.7903 41.7209L64.7836 54.323C64.4404 56.478 63.5336 58.5026 62.1558 60.1896L55.6385 68.1701C55.5449 68.2846 55.4279 68.3775 55.2953 68.4424C55.1628 68.5072 55.0178 68.5426 54.8704 68.546C54.723 68.5494 54.5766 68.5208 54.4412 68.462C54.3059 68.4033 54.1847 68.3159 54.086 68.2058L52.5379 66.4783C52.3776 66.2994 52.2848 66.0697 52.2757 65.8292C52.2665 65.5886 52.3415 65.3524 52.4878 65.1618L52.9437 64.5672C56.7352 59.6229 59.1271 53.7413 59.8668 47.5438L60.6646 40.8597C60.7314 40.2997 60.9487 39.7685 61.293 39.3231C61.6373 38.8776 62.0958 38.5347 62.6192 38.3311Z" fill="#FF8E00"/>
</svg>
