<svg width="30" height="30" viewBox="0 0 30 30" fill="none" xmlns="http://www.w3.org/2000/svg">
<path d="M28.0529 28.3765L21.7613 22.0849M21.7613 22.0849C22.8375 21.0087 23.6912 19.7311 24.2736 18.3249C24.8561 16.9188 25.1559 15.4117 25.1559 13.8898C25.1559 12.3678 24.8561 10.8607 24.2736 9.45457C23.6912 8.04844 22.8375 6.7708 21.7613 5.6946C20.6851 4.61839 19.4075 3.7647 18.0013 3.18226C16.5952 2.59983 15.0881 2.30005 13.5661 2.30005C12.0442 2.30005 10.5371 2.59983 9.13096 3.18226C7.72483 3.7647 6.44719 4.61839 5.37099 5.6946C3.1975 7.86809 1.97644 10.816 1.97644 13.8898C1.97644 16.9635 3.1975 19.9114 5.37099 22.0849C7.54448 24.2584 10.4924 25.4795 13.5661 25.4795C16.6399 25.4795 19.5878 24.2584 21.7613 22.0849Z" stroke="#E4E4E4" stroke-width="3" stroke-linecap="round" stroke-linejoin="round"/>
</svg>
