<svg width="26" height="20" viewBox="0 0 26 20" fill="none" xmlns="http://www.w3.org/2000/svg">
<path d="M0 9.12249C0 9.77384 0.269963 10.2732 0.809889 10.6206L11.6624 17.8831C11.9432 18.0785 12.2455 18.1871 12.5695 18.2088C12.8934 18.2305 13.2066 18.1545 13.509 17.9808C13.8113 17.8071 14.0489 17.5792 14.2217 17.2969C14.3944 17.0147 14.4808 16.7107 14.4808 16.385V12.7375C16.8133 12.7375 18.9082 13.4105 20.7656 14.7567C22.6229 16.1028 23.9295 17.8506 24.6854 20C25.1174 18.7841 25.3333 17.5792 25.3333 16.385C25.3333 14.4093 24.8474 12.5855 23.8755 10.9137C22.9037 9.2419 21.5862 7.9175 19.9233 6.94047C18.2603 5.96345 16.4461 5.47494 14.4808 5.47494V1.82739C14.4808 1.50172 14.3944 1.19776 14.2217 0.915506C14.0489 0.633255 13.8113 0.405283 13.509 0.23159C13.2066 0.0578976 12.8934 -0.018093 12.5695 0.0036186C12.2455 0.0253302 11.9432 0.133888 11.6624 0.329292L0.809889 7.59182C0.269963 7.93921 0 8.44943 0 9.12249Z" fill="#F58C3C"/>
</svg>
