<svg width="22" height="23" viewBox="0 0 22 23" fill="none" xmlns="http://www.w3.org/2000/svg">
<path d="M9.81525 9.7096C12.2203 9.7096 14.17 7.75989 14.17 5.3548C14.17 2.94971 12.2203 1 9.81525 1C7.41016 1 5.46045 2.94971 5.46045 5.3548C5.46045 7.75989 7.41016 9.7096 9.81525 9.7096Z" stroke="black"/>
<path d="M14.5452 12.9425C13.4937 12.1802 11.285 11.672 9.81515 11.672C8.6572 11.672 7.51059 11.9001 6.44083 12.3434C5.37108 12.7866 4.39913 13.4363 3.58051 14.2553C2.7619 15.0743 2.11266 16.0465 1.66989 17.1164C1.22712 18.1864 0.999487 19.3331 1 20.4911H12.6884" stroke="black"/>
<path d="M16.1324 22C18.7102 22 20.7999 19.9103 20.7999 17.3324C20.7999 14.7546 18.7102 12.6649 16.1324 12.6649C13.5546 12.6649 11.4648 14.7546 11.4648 17.3324C11.4648 19.9103 13.5546 22 16.1324 22Z" stroke="black"/>
<path d="M13.6309 17.2855H19.1037" stroke="black"/>
</svg>
